<svg id="Layer_1" data-name="Layer 1" xmlns="http://www.w3.org/2000/svg" viewBox="0 0 480 150"><defs><style>.cls-1{fill:#a1a2a2;}.cls-2{fill:#332d2b;}.cls-3{fill:#d12228;}</style></defs><title>logo-nintendo-3ds</title><g id="g4437"><g id="g4443"><path id="path4445" class="cls-1" d="M251.15,97.6a1.1,1.1,0,0,1-1.1,1.1h-21a1.1,1.1,0,0,1-1.1-1.1V82.41a1.09,1.09,0,0,1,1.1-1.09h21a1.09,1.09,0,0,1,1.1,1.09Zm-.91-20.84H228.86a5.63,5.63,0,0,0-5.61,5.62V97.64a5.62,5.62,0,0,0,5.61,5.61h21.38a5.63,5.63,0,0,0,5.62-5.61V82.38a5.64,5.64,0,0,0-5.62-5.62"/></g><g id="g4447"><path id="path4449" class="cls-2" d="M5,53.94V73.57H.09V47.07H4.28l19.86,19.3V47.07H29v26.5H25.15Z"/></g><g id="g4451"><path id="path4453" class="cls-2" d="M54.17,53.94V73.57h-4.9V47.07h4.18l19.87,19.3V47.07h4.85v26.5H74.34Z"/></g><g id="g4455"><path id="path4457" class="cls-2" d="M156.1,53.94V73.57h-4.9V47.07h4.18l19.87,19.3V47.07h4.84v26.5h-3.82Z"/></g><g id="g4459"><path id="path4461" class="cls-2" d="M40.67,47.07h.9v26.5h-4.9V47.07Z"/></g><g id="g4463"><path id="path4465" class="cls-2" d="M111.57,47.07h.9v4.56H100.64V73.57H95.55V51.63H83.73V47.07Z"/></g><g id="g4467"><path id="path4469" class="cls-2" d="M143,47.07h.92v4.56h-21v5.95h16.27v4.55H122.89V69h21v4.57H118V47.07Z"/></g><g id="g4471"><path id="path4473" class="cls-2" d="M207.37,69H192.3V51.63h15.07c4.71,0,6.39,4.68,6.39,8.68S212.08,69,207.37,69m8-18.06a9.9,9.9,0,0,0-8.19-3.87H187.57v26.5h19.66a9.87,9.87,0,0,0,8.19-3.87,15.37,15.37,0,0,0,2.75-9.39,15.35,15.35,0,0,0-2.75-9.37"/></g><g id="g4475"><path id="path4477" class="cls-2" d="M251.15,67.91a1.1,1.1,0,0,1-1.1,1.1h-21a1.1,1.1,0,0,1-1.1-1.1V52.72a1.09,1.09,0,0,1,1.1-1.08h21a1.09,1.09,0,0,1,1.1,1.08Zm-.91-20.84H228.86a5.63,5.63,0,0,0-5.61,5.62V68a5.62,5.62,0,0,0,5.61,5.62h21.38A5.63,5.63,0,0,0,255.86,68V52.69a5.64,5.64,0,0,0-5.62-5.62"/></g><g id="g4479"><path id="path4481" class="cls-2" d="M409.65,92.13c5.09,2,15.83,3.64,24.2,3.64,9.18,0,13-3.15,13-7.1,0-3.55-3.53-5.63-13.66-9.34-13.54-5-23.48-9-23.48-17.84,0-9.22,11.95-14.64,30.18-14.64a85.22,85.22,0,0,1,19.37,1.76l0,8.74c-6.1-1.16-11.51-3.15-19.92-3.15-9,0-12.84,2.86-12.84,5.8,0,4.28,5.91,6.32,16.28,10,14.43,5.17,22.46,9.15,22.46,17.86,0,9-10.05,15.44-32.73,15.44a133.15,133.15,0,0,1-22.88-1.77Z"/></g><g id="g4483"><path id="path4485" class="cls-2" d="M361.37,54.58H350.58V95.44h10.79c16.57,0,27-7.09,27-20.35s-10.45-20.51-27-20.51m29,44.66c-5.35,2.42-15.44,4-24.28,4H332.34V47h33.73c8.84,0,18.93,1.56,24.28,4,13,5.87,17.24,15.25,17.24,24.15s-4.21,18.28-17.24,24.15"/></g><g id="g4487"><path id="path4489" class="cls-3" d="M308.69,72.43s15.74-2.52,15.74-12.32c0-9.58-16.76-13.49-34.59-13.49a161.59,161.59,0,0,0-26.68,2v8.7C270.47,55.52,277.45,54,287,54c10.22,0,18,3.05,18,7.36,0,5.19-7.72,8.16-24.32,8.16h-7.62v7.83h7.08c17.49,0,27.43,2.63,27.43,9,0,5.73-8.88,9.21-20,9.21-9.66,0-18.49-2.06-25.66-4.05V101c3.44.59,12.57,2.42,29.58,2.42,18.85,0,35.24-6.06,35.24-16.74,0-9-11.36-14.21-18.08-14.21"/></g><g id="g4491"><path id="path4493" class="cls-2" d="M469.84,95.54h-1.78v-1h4.71v1H471v5.28h-1.14Z"/></g><g id="g4495"><path id="path4497" class="cls-2" d="M478.77,98.27c0-.8-.08-1.77-.07-2.61h0c-.2.76-.46,1.6-.73,2.38l-.92,2.71h-.87l-.83-2.67c-.24-.8-.46-1.65-.63-2.42h0c0,.81-.06,1.8-.11,2.65l-.14,2.51h-1.07l.42-6.24h1.5l.82,2.51c.22.73.41,1.47.57,2.17h0c.16-.68.38-1.45.62-2.18l.86-2.5h1.48l.36,6.24h-1.11Z"/></g></g></svg>