<svg id="Layer_1" data-name="Layer 1" xmlns="http://www.w3.org/2000/svg" viewBox="0 0 480 150"><title>logo-playstation-3</title><g id="g33"><g id="g35"><path id="path37" d="M307.26,23.76h-63c-19.42,0-28.94,12-28.94,27.58V98.67c0,9.67-4.56,16.61-14.2,16.61H146.09a.71.71,0,0,0-.71.69v9.55a.72.72,0,0,0,.71.72h62.33c19.42,0,29-11.95,29-27.54V51.34c0-9.68,4.53-16.63,14.22-16.63h55.66A.74.74,0,0,0,308,34V24.47a.76.76,0,0,0-.78-.71Z"/><path id="path39" d="M121.92,23.76H.76a.74.74,0,0,0-.76.71V34a.73.73,0,0,0,.76.71H114.64c9.62,0,14.19,6.94,14.19,16.62S124.26,67.9,114.64,67.9H24.55C10.56,67.9,0,79.65,0,95.24V125.5a.74.74,0,0,0,.76.74H21.29a.74.74,0,0,0,.74-.74V95.24c0-9.61,5.52-16.4,13.54-16.4h86.35c19.38,0,28.89-11.9,28.89-27.49s-9.51-27.59-28.89-27.59Z"/><path id="path41" d="M471,73.72a.88.88,0,0,1,0-1.12c6-5,9-12.53,9-21.25,0-15.57-9.48-27.59-28.92-27.59H330a.72.72,0,0,0-.72.74V34a.7.7,0,0,0,.72.71H443.8c9.6,0,14.23,6.94,14.23,16.62S453.43,67.9,443.8,67.9h-.14L330,67.93a.69.69,0,0,0-.72.73v9.5a.68.68,0,0,0,.72.68H443.8C456.36,79,458,91.22,458,97.47l0,1.18c0,9.69-4.63,16.66-14.23,16.66H330a.69.69,0,0,0-.72.69v9.52a.71.71,0,0,0,.72.72H451.08c19.45,0,28.92-12.92,28.92-27.59V97.47C480,88.12,477,79.18,471,73.72Z"/></g></g></svg>