<svg id="Layer_1" data-name="Layer 1" xmlns="http://www.w3.org/2000/svg" viewBox="0 0 480 150"><title>logo-playstation-portable</title><g id="layer1"><path id="path6905" d="M82.16,129.41c4.24,0,6.79-.86,6.79-4.89,0-3-1.85-4.59-6.1-4.59H77v9.48Zm-7.41,12.46V118h8.72c6.17,0,7.79,3.09,7.79,6.67,0,5.33-4.78,6.66-9.18,6.66H77v10.53H74.75"/><path id="path6907" d="M94.27,141.87H96.2V118H94.27Z"/><path id="path6909" d="M112.4,132.86a16.84,16.84,0,0,1-5.17,1c-3,.23-4.86,1.33-4.86,3.64,0,2.1,1.85,3.09,3.71,3.09,3.16,0,6.32-1.53,6.32-5Zm-3.39-1a9.38,9.38,0,0,0,2.62-.57c.69-.3.77-1.19.77-1.79,0-2-1.23-3.47-4.32-3.47-2.7,0-4.63.89-5,3.87h-2c.31-4,3.32-5.67,7.1-5.67,3.47,0,6.17,1.36,6.17,5.34v9.34c0,1.56.46,1.92,2.08,1.33v1.55a4.47,4.47,0,0,1-1.54.34,3.53,3.53,0,0,1-.85-.1c-1.39-.2-1.62-1.36-1.62-2.56a8.39,8.39,0,0,1-6.4,2.86c-3,0-5.71-1.63-5.71-4.94,0-2.88,2-4.64,6-5.17l2.7-.36"/><path id="path6911" d="M119.27,146.54a9,9,0,0,0,1.62.21c2.31,0,2.62-3.26,3.39-4.75l-6.71-17.29h2.24l5.55,14.75,5.48-14.75H133l-6.4,16.93c-1.62,4.31-2.7,7-5.48,7a7.79,7.79,0,0,1-1.85-.23v-1.86"/><path id="path6913" d="M137.7,134.75c.39,4.27,3.17,5.83,6.87,5.83,4.24,0,6-2.32,6-4.94,0-7.39-14.51-2.48-14.51-11.86,0-3.31,2.7-6.39,8.11-6.39s8,3.24,7.94,7.13h-2.08c0-3.65-2.86-5.21-5.86-5.21-4.63,0-6.25,2.81-5.87,5.27,1,6.15,14.58,1.72,14.58,11,0,4.38-3.24,7-8.71,7-5,0-8.72-2.58-8.72-7.75h2.23"/><path id="path6915" d="M163.24,141.94a9.39,9.39,0,0,1-2.31.4c-1.93,0-3-.87-3-3.42V126.36h-2.47v-1.65h2.47v-4.78h2v4.78h3.17v1.65h-3.17v11.76c0,1.7,0,2.43,1.7,2.43a7,7,0,0,0,1.62-.23v1.62"/><path id="path6917" d="M178.13,132.86a16.41,16.41,0,0,1-5.09,1c-3,.23-4.86,1.33-4.86,3.64,0,2.1,1.85,3.09,3.7,3.09,3.16,0,6.25-1.53,6.25-5Zm-3.32-1a10.6,10.6,0,0,0,2.62-.57c.62-.3.7-1.19.7-1.79,0-2-1.16-3.47-4.24-3.47-2.78,0-4.63.89-5,3.87h-2c.3-4,3.31-5.67,7-5.67,3.47,0,6.25,1.36,6.25,5.34v9.34c0,1.56.38,1.92,2.08,1.33v1.55a5.61,5.61,0,0,1-1.54.34,4.2,4.2,0,0,1-.93-.1c-1.31-.2-1.54-1.36-1.54-2.56a8.54,8.54,0,0,1-6.41,2.86c-3,0-5.78-1.63-5.78-4.94,0-2.88,2-4.64,6-5.17l2.78-.36"/><path id="path6919" d="M191.86,141.94a9.39,9.39,0,0,1-2.31.4c-1.93,0-3-.87-3-3.42V126.36h-2.39v-1.65h2.39v-4.78h2v4.78h3.17v1.65h-3.17v11.76c0,1.7,0,2.43,1.7,2.43a7,7,0,0,0,1.62-.23v1.62"/><path id="path6921" d="M197.8,141.87h-1.93V124.71h1.93ZM195.72,121V118H198V121h-2.24"/><path id="path6923" d="M209.53,126c-4.17,0-5.79,3.54-5.79,7.25,0,4.27,2,7.26,5.79,7.26,4.16,0,5.86-3.58,5.86-7.26C215.39,129.24,213.77,126,209.53,126Zm-7.95,7.25c0-5,2.7-9,7.95-9,5.4,0,8,4,8,9,0,5.44-3.16,9.05-8,9.05-4.32-.07-7.95-3.05-7.95-9.05"/><path id="path6925" d="M222.33,141.87h-2V124.71h2v2.38c1.55-1.69,3.17-2.85,5.48-2.85a5.94,5.94,0,0,1,5.25,2.45,6.44,6.44,0,0,1,.92,3.94v11.24h-2v-11.2c0-3.08-1.31-4.63-4.48-4.63a5,5,0,0,0-4.78,3.34,9,9,0,0,0-.39,3.25v9.24"/><path id="path6927" d="M241.77,136.3a2.31,2.31,0,0,0-1-.17h-.62v1.59h.7a2.52,2.52,0,0,0,.77-.09.67.67,0,0,0,.46-.69A.74.74,0,0,0,241.77,136.3Zm-.84-.71a3.66,3.66,0,0,1,1.23.16,1,1,0,0,1,.62,1.12.89.89,0,0,1-.39.87,1.67,1.67,0,0,1-.62.21,1.06,1.06,0,0,1,.7.44,1.32,1.32,0,0,1,.23.7v.32a.49.49,0,0,0,.08.33v.3h-.7v-.1l-.07-.14v-.36a1.19,1.19,0,0,0-.39-1,1.74,1.74,0,0,0-.85-.15h-.62V140h-.77v-4.45Zm-2.4-.23a3.5,3.5,0,1,0,5.94,2.46,3.27,3.27,0,0,0-1-2.46,3.5,3.5,0,0,0-4.94,0Zm5.33,5.33a4,4,0,0,1-6.87-2.87,4,4,0,1,1,8,0,4,4,0,0,1-1.15,2.87"/><path id="path6929" d="M258.59,129.41c4.25,0,6.87-.86,6.87-4.89,0-3-1.93-4.59-6.17-4.59h-5.87v9.48Zm-7.4,12.46V118h8.71c6.18,0,7.8,3.09,7.8,6.67,0,5.33-4.71,6.66-9.19,6.66h-5.09v10.53h-2.23"/><path id="path6931" d="M276.57,126c-4.17,0-5.87,3.54-5.87,7.25,0,4.27,2.09,7.26,5.87,7.26,4.16,0,5.86-3.58,5.86-7.26C282.35,129.24,280.81,126,276.57,126Zm-7.95,7.25c0-5,2.62-9,7.95-9s7.94,4,7.94,9c0,5.44-3.16,9.05-7.94,9.05-4.4-.07-7.95-3.05-7.95-9.05"/><path id="path6933" d="M289.45,141.87h-2V124.71h2v3.22h.08c1.08-2.76,2.7-3.69,5.55-3.69v2.16c-4.47-.1-5.63,3.21-5.63,7v8.42"/><path id="path6935" d="M306.19,141.94a9.36,9.36,0,0,1-2.24.4c-2,0-3.08-.87-3.08-3.42V126.36h-2.39v-1.65h2.39v-4.78h2v4.78h3.24v1.65h-3.24v11.76c0,1.7.08,2.43,1.7,2.43a6.4,6.4,0,0,0,1.62-.23v1.62"/><path id="path6937" d="M320.46,132.86a16.3,16.3,0,0,1-5.09,1c-3,.23-4.86,1.33-4.86,3.64,0,2.1,1.85,3.09,3.7,3.09,3.17,0,6.25-1.53,6.25-5Zm-3.31-1a10.8,10.8,0,0,0,2.62-.57c.62-.3.69-1.19.69-1.79,0-2-1.15-3.47-4.24-3.47-2.78,0-4.63.89-5,3.87h-2c.31-4,3.32-5.67,7-5.67,3.47,0,6.25,1.36,6.25,5.34v9.34c0,1.56.38,1.92,2.08,1.33v1.55a5.61,5.61,0,0,1-1.54.34,4.2,4.2,0,0,1-.93-.1c-1.31-.2-1.54-1.36-1.54-2.56a8.52,8.52,0,0,1-6.4,2.86c-3,0-5.79-1.63-5.79-4.94,0-2.88,2-4.64,6-5.17l2.78-.36"/><path id="path6939" d="M336.2,140.55c3.32,0,5.79-2.43,5.86-6.73S340.29,126,336.2,126c-3.63,0-5.79,3.31-5.79,7.18C330.41,137.37,332.42,140.55,336.2,140.55Zm-5.79,1.32h-2V118h2v9.45a7.1,7.1,0,0,1,6.1-3.22c5.25,0,7.64,4.28,7.64,9.09,0,5.06-2.16,9-7.72,9a7,7,0,0,1-6-3.48h0v3"/><path id="path6941" d="M348.54,141.87h2V118h-2Z"/><path id="path6943" d="M367.83,132.09c0-3.34-1.85-6-5.4-6s-5.4,2.81-5.79,6Zm-11.19,1.67c0,3.7,2,6.79,5.79,6.79a5,5,0,0,0,5.17-4h2.24c-1,3.24-3,5.74-7.41,5.74-5.48,0-7.87-3.91-7.87-9s2.93-9.12,7.87-9.12c4.71,0,7.56,3.35,7.56,9.52H356.64"/><path id="path6945" d="M0,1.37H140.56V43.05H5.55V79.18H0V37.5H135V6.92H0V1.37"/><path id="path6947" d="M316.14,43.05V79.18h-5.55V37.5h135V6.92h-135V1.37H451.15V43.05h-135"/><path id="path6949" d="M212.23,1.37V73.62H140.56v5.56h77.53V6.92h71.67V1.37H212.23"/><path id="path6951" d="M465.88,71h-3v-1h7.26v1h-3v8.22h-1.24V71"/><path id="path6953" d="M475.06,79.19l-2.54-7.53v7.53h-1.24V69.92H473l2.62,7.88,2.7-7.88H480v9.27h-1.23V71.66l-2.47,7.53h-1.24"/></g></svg>