<svg id="Layer_1" data-name="Layer 1" xmlns="http://www.w3.org/2000/svg" xmlns:xlink="http://www.w3.org/1999/xlink" viewBox="0 0 480 150"><defs><style>.cls-1{fill:#6b6b6b;}.cls-2{fill:#177d3e;}.cls-3{fill:#666;}.cls-4{fill:url(#radial-gradient);}.cls-5{fill:#00a54d;}.cls-6{fill:url(#linear-gradient);}.cls-7{fill:#02a74d;}.cls-8{fill:url(#linear-gradient-2);}.cls-9{fill:url(#linear-gradient-3);}.cls-10{fill:url(#linear-gradient-4);}</style><radialGradient id="radial-gradient" cx="-1913.68" cy="-1797.32" r="2.42" gradientTransform="matrix(-0.05, 24.88, -22.09, -0.04, -39750.8, 47602.57)" gradientUnits="userSpaceOnUse"><stop offset="0" stop-color="#fff"/><stop offset="1" stop-color="#fff" stop-opacity="0"/></radialGradient><linearGradient id="linear-gradient" x1="-1740.14" y1="-1247.4" x2="-1740.81" y2="-1248.18" gradientTransform="matrix(14.91, 0.03, -0.03, 14.71, 25939.33, 18488.76)" gradientUnits="userSpaceOnUse"><stop offset="0" stop-color="#97ca43"/><stop offset="1" stop-color="#97ca43" stop-opacity="0"/></linearGradient><linearGradient id="linear-gradient-2" x1="-1739.9" y1="-1249.27" x2="-1739.29" y2="-1250.63" gradientTransform="matrix(14.91, 0.03, -0.03, 14.71, 25935.23, 18488.75)" xlink:href="#linear-gradient"/><linearGradient id="linear-gradient-3" x1="1018.85" y1="-1247.03" x2="1018.19" y2="-1247.81" gradientTransform="matrix(14.81, 0.03, -0.03, 14.74, -15063.87, 18434.26)" xlink:href="#linear-gradient"/><linearGradient id="linear-gradient-4" x1="1018.08" y1="-1248.92" x2="1018.6" y2="-1249.77" gradientTransform="matrix(14.81, 0.03, -0.03, 14.74, -15063.88, 18434.27)" xlink:href="#linear-gradient"/></defs><title>logo-xbox-one-s</title><path class="cls-1" d="M373.28,49.2l-.08,42.16-31-42.25-5.09,0-.1,51.33h5.71l.08-41.22,30.35,41.31,5.72,0,.1-51.33Zm-65.83-1.31c-14.43,0-24.54,11-24.57,26.79s10,26.88,24.47,26.91,24.49-11,24.52-26.82-10-26.86-24.42-26.88m-.09,48.26c-11,0-18.68-8.85-18.66-21.46s7.75-21.4,18.74-21.38,18.62,8.85,18.6,21.45-7.7,21.41-18.68,21.39m83.73-.61,0-19,28.25,0v-5l-28.26,0,0-17.3,30.17.06v-5l-35.93-.06-.1,51.36,36.29.07v-5Z"/><path class="cls-2" d="M266.75,100.37l-16.37-22.3-16.44,22.24h-6.76L247,73.42,229,48.93h6.76l14.65,20L265.11,49h6.75L253.81,73.44l19.69,27ZM176.47,75.23a15.36,15.36,0,0,0-3.36-2.15,11.63,11.63,0,0,0,6.19-10.27c0-3.29-1.19-14-16.67-14l-20.87,0,0,22.14h-6.95q-1.92,2.53-3.74,5.15l10.68,0,0,24.06,20.86.05c11.3,0,18.33-5.71,18.35-15a12.73,12.73,0,0,0-4.41-10M147.52,54.14l15.1,0c4.08,0,10.92,1,10.91,8.18,0,5.4-4,8.62-10.95,8.6l-15.09,0,0-16.79Zm15,40.68-15.1,0,0-18.7,15.09,0c5.73,0,12.57,1.61,12.55,9,0,8.48-7.88,9.74-12.58,9.73"/><path class="cls-2" d="M208.08,47.7c-14.43,0-24.53,11-24.56,26.8s10,26.88,24.46,26.9,24.49-11,24.52-26.81-10-26.86-24.42-26.89M208,96c-11,0-18.68-8.85-18.65-21.46s7.74-21.4,18.73-21.38,18.62,8.85,18.6,21.45S219,96,208,96m-69.13,4.16-19.7-26.95,18.07-24.42h-6.75L115.75,68.68l-14.64-20H94.38l18,24.49L92.55,100h6.76l16.43-22.23,16.36,22.3Z"/><path class="cls-3" d="M83.68,75.08c0,22.82-18.78,41.28-41.86,41.24S.06,97.74.1,74.92,18.89,33.64,42,33.68s41.76,18.58,41.71,41.4Z"/><path class="cls-4" d="M83.68,75.08c0,22.82-18.78,41.28-41.86,41.24S.06,97.74.1,74.92,18.89,33.64,42,33.68s41.76,18.58,41.71,41.4Z"/><path class="cls-4" d="M83.68,75.08c0,22.82-18.78,41.28-41.86,41.24S.06,97.74.1,74.92,18.89,33.64,42,33.68s41.76,18.58,41.71,41.4Z"/><path class="cls-4" d="M83.68,75.08c0,22.82-18.78,41.28-41.86,41.24S.06,97.74.1,74.92,18.89,33.64,42,33.68s41.76,18.58,41.71,41.4Z"/><path class="cls-5" d="M31.32,56.88C26.7,62.47,7.33,85.16,9,100.54a43.67,43.67,0,0,0,3.89,4.27C12.72,93,26.55,80.47,37.35,71l-6-14.11Z"/><path class="cls-6" d="M31.32,56.88C26.7,62.47,7.33,85.16,9,100.54a42.44,42.44,0,0,0,3.89,4.26C12.72,93,26.55,80.47,37.35,71Z"/><path class="cls-7" d="M20,39.82a42.21,42.21,0,0,0-6.71,5c6.62,1.27,13.26,7.12,16.9,12,3.16,5,4.88,9.53,7.11,14.23q2.34-2,4.74-3.93l0-20.4c-4.93-3.07-13.09-7.13-22-6.88Z"/><path class="cls-8" d="M20,39.82a42.21,42.21,0,0,0-6.71,5c6.62,1.27,13.26,7.12,16.9,12,3.16,5,4.88,9.53,7.11,14.23q2.34-2,4.74-3.93l0-20.4c-4.93-3.07-13.09-7.13-22-6.88Z"/><path class="cls-5" d="M52.55,56.94c4.58,5.61,23.81,28.39,22.07,43.77A42.44,42.44,0,0,1,70.73,105C71,93.19,57.21,80.57,46.49,71l6.06-14.09Z"/><path class="cls-9" d="M52.55,56.94c4.58,5.6,23.81,28.39,22.07,43.77a41.38,41.38,0,0,1-3.9,4.26C71,93.19,57.21,80.57,46.49,71Z"/><path class="cls-7" d="M63.88,39.9A42.14,42.14,0,0,1,70.56,45C64,46.2,57.31,52,53.67,56.86c-3.17,5-4.9,9.51-7.15,14.21-1.51-1.29-3-2.6-4.71-3.94l0-20.42c4.93-3.06,13.07-7.09,21.94-6.81Z"/><path class="cls-10" d="M63.88,39.9A42.14,42.14,0,0,1,70.56,45C64,46.2,57.31,52,53.67,56.86c-3.17,5-4.9,9.51-7.15,14.21-1.51-1.29-3-2.6-4.71-3.94l0-20.42c4.93-3.06,13.07-7.09,21.94-6.81Z"/><path class="cls-1" d="M451.8,76.22l5.08-7a13.52,13.52,0,0,1-4.7-2.06,5.2,5.2,0,0,1-2-4.58,5,5,0,0,1,2.3-4.46A11.18,11.18,0,0,1,459,56.57h0c8.93,0,11.21,4.73,12.77,6.66l4.84-6.62a13.91,13.91,0,0,0-3-3.5c-3.25-2.54-8.19-3.88-14.7-3.89-5.67,0-10.13,1.19-13.39,3.71a12.31,12.31,0,0,0-4.85,10.12C440.6,69.68,444.33,73.91,451.8,76.22Z"/><path class="cls-1" d="M476.4,75.9c-2.29-2.05-5.66-3.51-10.36-4.72l-5.2,7.1a19.51,19.51,0,0,1,7.47,3.15,4.93,4.93,0,0,1,2.16,4.47,6.14,6.14,0,0,1-2.54,5.3A12.16,12.16,0,0,1,460.57,93h0c-7.47,0-11-2.43-14.45-8.95h0l-5.2,7a15.24,15.24,0,0,0,3.85,4.83c3.61,3,8.8,4.47,15.43,4.49,6.27,0,11.09-1.31,14.6-4A13,13,0,0,0,480,85.31a10.83,10.83,0,0,0-3.6-9.41Z"/></svg>