<svg id="Layer_1" data-name="Layer 1" xmlns="http://www.w3.org/2000/svg" viewBox="0 0 480 150"><defs><style>.cls-1{fill:none;}</style></defs><title>logo-playstation-4</title><path class="cls-1" d="M479.41,48H172.56v62.11H480V48Zm-12.6,54.55h5.37v.79H470v6.13H469V103.3h-2.22v-.79Z"/><polygon points="469.03 109.42 469.97 109.42 469.97 103.3 472.18 103.3 472.18 102.51 466.81 102.51 466.81 103.3 469.03 103.3 469.03 109.42"/><path class="cls-1" d="M479.41,48H172.56v62.11H480V48ZM473,102.51h1.29l2,5.91,1.94-5.91h1.13v6.92h-.78V103.8l-1.86,5.63h-.93L474,103.8v5.63H473v-6.92Z"/><polygon points="473.98 103.8 475.84 109.42 476.77 109.42 478.63 103.8 478.63 109.42 479.41 109.42 479.41 102.51 478.28 102.51 476.34 108.42 474.33 102.51 473.04 102.51 473.04 109.42 473.98 109.42 473.98 103.8"/><path d="M320.08,92.85V64.24c0-5.83,2.72-10,8.53-10h35.84a.46.46,0,0,0,.43-.44V48.1a.33.33,0,0,0,0-.14H321c-9.5,1.2-14.14,7.82-14.14,16.28V92.85c0,5.84-2.8,10-8.53,10H260.51a.41.41,0,0,0-.43.43V109a.5.5,0,0,0,.32.48h43C314.56,109.17,320.08,102,320.08,92.85Z"/><path d="M172.85,109.47h12.58a.5.5,0,0,0,.32-.48V90.76c0-5.84,3.29-9.87,8.1-9.87h51.82c11.69,0,17.35-7.21,17.35-16.65,0-8.46-4.64-15.08-14.14-16.28H172.62a.3.3,0,0,0-.06.14v5.69a.38.38,0,0,0,.43.44H241.3c5.81,0,8.53,4.18,8.53,10s-2.72,10-8.53,10H187.25c-8.38,0-14.69,7.13-14.69,16.5V109A.46.46,0,0,0,172.85,109.47Z"/><path class="cls-1" d="M375.77,96.24h57.71a.47.47,0,0,0,.43-.44V60.28a.65.65,0,0,0-1.08-.58L375.42,95.23c-.37.22-.51.43-.43.72C375.05,96.09,375.27,96.24,375.77,96.24Z"/><path d="M364.67,102.87h68.81a.32.32,0,0,1,.35.29V109a.42.42,0,0,0,.43.44h12.41a.42.42,0,0,0,.43-.44V103.3a.46.46,0,0,1,.43-.43h12.32a.42.42,0,0,0,.44-.43V96.67a.42.42,0,0,0-.44-.43H447.53a.47.47,0,0,1-.43-.43V54.23c0-3.4-1.26-5.56-3.38-6.27h-3.59a13.57,13.57,0,0,0-3.64,1.58L362.37,95.3c-2.86,1.8-3.87,3.82-3.15,5.33C359.79,101.93,361.44,102.87,364.67,102.87Zm10.75-7.64L432.83,59.7a.65.65,0,0,1,1.08.58V95.81a.47.47,0,0,1-.43.43H375.77c-.5,0-.72-.15-.78-.29C374.91,95.66,375.05,95.45,375.42,95.23Z"/><path d="M48.08,25c5.59,1,11.08,2.53,16.55,4.08,3.13.91,6.25,1.85,9.35,2.85a67.43,67.43,0,0,1,14.13,5.93,27.71,27.71,0,0,1,5.49,4.21,20.64,20.64,0,0,1,4.25,6,32.9,32.9,0,0,1,2.78,12.91,39.46,39.46,0,0,1-.45,8.62,20.33,20.33,0,0,1-2.56,7,12.26,12.26,0,0,1-11,6,21.76,21.76,0,0,1-9.31-2.36c0-9.69,0-19.38,0-29.07A27.11,27.11,0,0,0,77.08,46a6.17,6.17,0,0,0-1.84-3.6,5.4,5.4,0,0,0-2.51-1.18,2.6,2.6,0,0,0-2.47.95A7,7,0,0,0,69,46.38q0,38.91,0,77.82l-20.93-6.64Q48.07,71.27,48.08,25Z"/><path d="M16.71,90.64Q30.36,85.81,44,81c0,3.58,0,7.15,0,10.73a11.7,11.7,0,0,1,0,1.45c-7.2,2.55-14.38,5.14-21.56,7.71a7.76,7.76,0,0,0-2.79,1.56,1.35,1.35,0,0,0-.45,1.4A2.49,2.49,0,0,0,20.59,105a15,15,0,0,0,5,.81,27.55,27.55,0,0,0,5.59-.58,23.21,23.21,0,0,0,3.62-1.1c3.07-1.11,6.14-2.23,9.21-3.33,0,3,0,6,0,9.07,0,.6,0,1.21,0,1.81a70.92,70.92,0,0,1-11.44,1.2,68,68,0,0,1-22.82-3.44,20.59,20.59,0,0,1-6.82-3.15A7.73,7.73,0,0,1,.29,103,4.55,4.55,0,0,1,.42,99.5a6.81,6.81,0,0,1,2.37-2.6,40.54,40.54,0,0,1,7.27-3.8C12.23,92.17,14.49,91.45,16.71,90.64Z"/><path d="M89.92,86.57c2.06-.24,4.14-.3,6.21-.37a68.82,68.82,0,0,1,20.21,2.92c1.28.39,2.52.9,3.8,1.3a19.13,19.13,0,0,1,6.37,3.48,5.51,5.51,0,0,1,2,3.88,4.83,4.83,0,0,1-1.31,3.37,18.54,18.54,0,0,1-5.63,3.95,61.08,61.08,0,0,1-6.8,2.67L73,122.8V111.08c0-.15-.07-.42.15-.46L105,99.27a14.77,14.77,0,0,0,4.2-1.9,1.55,1.55,0,0,0,.74-1.68,2.49,2.49,0,0,0-1.42-1.16,14.69,14.69,0,0,0-5-.8,25.39,25.39,0,0,0-7.83,1.19c-7.55,2.65-15.1,5.33-22.66,8V90.31A77.83,77.83,0,0,1,89.92,86.57Z"/><path d="M120.92,115.47a4.79,4.79,0,1,1-3.86,2.89A4.82,4.82,0,0,1,120.92,115.47Zm-.36.88a4,4,0,0,0-3,4.74,4,4,0,1,0,7.72-1.92,4.07,4.07,0,0,0-2-2.47A4,4,0,0,0,120.56,116.35Z"/><path d="M119.42,117.47H122a1.86,1.86,0,0,1,1.37.49,1.73,1.73,0,0,1,.28,1.45c-.06.33-.34.52-.55.75.18.16.41.31.45.57a12.5,12.5,0,0,0,.16,1.5,1.24,1.24,0,0,1,.21.55h-1.07c-.24-.56-.06-1.2-.21-1.78a.54.54,0,0,0-.54-.38c-.59,0-1.17,0-1.75,0,0,.72,0,1.45,0,2.17h-.91C119.41,121,119.42,119.24,119.42,117.47Zm.93.84v1.47h1.56a.76.76,0,0,0,.74-1.21.74.74,0,0,0-.65-.26C121.45,118.3,120.9,118.31,120.35,118.31Z"/></svg>