<svg id="Layer_1" data-name="Layer 1" xmlns="http://www.w3.org/2000/svg" viewBox="0 0 480 150"><title>logo-xbox-series-x</title><g id="g6"><path id="path10" d="M44.57,25.79A55.68,55.68,0,0,0,33,28.53c-3.37,1.27-7.49,3.3-7.49,3.7,0,.24.73.46,1.92.58,4.28.49,12.23,3.85,19.41,8.13a19.82,19.82,0,0,0,3.76,1.91,17.71,17.71,0,0,0,3.73-1.91,92.69,92.69,0,0,1,14-6.84,40.52,40.52,0,0,1,4.93-1.2c1.59-.21,2.41-.49,2.41-.73,0-.9-7.12-3.94-12.07-5.18A50.37,50.37,0,0,0,44.57,25.79Z"/><path id="path12" d="M15,40.14A48.33,48.33,0,0,0,.92,69.22a46.5,46.5,0,0,0,.64,16,48.69,48.69,0,0,0,6.79,16.62c2,3,2.35,3,2.6-.25.94-12.12,10.3-28.78,25.86-45.89a20.22,20.22,0,0,0,2.47-3.11c0-.43-4.64-5-8.07-7.94C26.63,40.66,20.67,37,18.92,37,18.25,37,17.4,37.71,15,40.14Z"/><path id="path14" d="M80,37.89c-3.88,1.88-9.11,5.82-14.15,10.71a25.26,25.26,0,0,0-3.67,4,27.23,27.23,0,0,0,3.33,4.19c13.21,14.8,21.58,28.93,24.18,40.75a26,26,0,0,1,.61,4.62c0,1.72.07,1.94.59,1.94.7,0,3.48-4.31,5.22-8.16a45.91,45.91,0,0,0,4.5-22.84,46.16,46.16,0,0,0-8.72-26.53C89.33,42.88,83.61,37,82.63,37A9.45,9.45,0,0,0,80,37.89Z"/><path id="path16" d="M47.23,65.07A202.25,202.25,0,0,0,25,88.31c-5.78,7.32-12,17.23-12,19.08,0,.59,3.21,3.88,6.12,6.31,10.21,8.5,25,12.44,39,10.37a51.81,51.81,0,0,0,28.68-14.4c1.25-1.2,1.43-1.54,1.43-2.65,0-5.66-11.06-19.7-29.31-37.27-5-4.77-7.7-7.2-8.13-7.2A13,13,0,0,0,47.23,65.07Z"/></g><polygon id="polygon14" points="320.67 39.94 342.21 69.19 363.72 39.94 373.62 39.94 347.21 75.8 376.16 115.27 366.26 115.27 342.21 82.6 318.16 115.27 308.25 115.27 337.18 75.8 310.77 39.94 320.67 39.94"/><path id="path16-7" d="M233.82,78.65a21.66,21.66,0,0,0-4.94-3.14,17.05,17.05,0,0,0,9.06-15.08c0-4.82-1.78-20.49-24.49-20.49H182.86V72.41H172.67c-1.32,1.73-4.32,5.86-5.47,7.56h15.66v35.29h30.59c16.57,0,26.87-8.41,26.87-22a18.64,18.64,0,0,0-6.5-14.62M191.32,47.8h22.13c6,0,16,1.49,16,12,0,7.92-5.84,12.64-16,12.64H191.32Zm22.13,59.61H191.32V80h22.13c8.39,0,18.43,2.32,18.43,13.13,0,12.43-11.54,14.3-18.43,14.3"/><path id="path18" d="M280.1,38.2c-21.15,0-35.94,16.18-35.94,39.35S259,116.93,280.1,116.93,316,100.76,316,77.55,301.24,38.2,280.1,38.2m0,70.77c-16.12,0-27.41-12.92-27.41-31.42S264,46.16,280.1,46.16s27.33,12.91,27.33,31.39S296.19,109,280.1,109"/><polygon id="polygon20" points="113.39 39.94 139.79 75.8 110.84 115.26 120.76 115.26 144.79 82.61 168.84 115.26 178.75 115.26 149.79 75.8 176.22 39.94 166.32 39.94 144.78 69.2 123.26 39.94 113.39 39.94"/><path d="M398.1,113.93c0-1.06,0-1.11.61-1.24,2.34-.51,2.41-5.41.08-5.41-1.11,0-1.5.58-2,3-.55,2.69-1.5,4-3.06,4.27a3.3,3.3,0,0,1-3.7-2.13,9.07,9.07,0,0,1,0-4.57,3.59,3.59,0,0,1,2-2.25c1.24-.57,1.33-.52,1.33.7,0,1,0,1.09-.68,1.33-.9.32-1.22,1-1.24,2.5,0,1.13,0,1.3.55,1.74a1.2,1.2,0,0,0,1.82.1c.48-.38.89-1.56,1.3-3.69a5.26,5.26,0,0,1,1.38-2.63,4,4,0,0,1,3-.56,3.65,3.65,0,0,1,2.37,2.48c.57,2.24.09,5.1-1,6.19a5.9,5.9,0,0,1-2.66,1.26c-.09,0-.17-.5-.17-1.11Z"/><path d="M407.5,114.92c0-.06.89-1.32,2-2.8s2.26-3.1,2.61-3.6,1.28-1.78,2.07-2.86,2-2.78,2.77-3.79l3.85-5.31,3.85-5.31c3-4.13,2.94-4.08,3.29-3.63.57.72,1.19,1.55,3.28,4.44,1.13,1.58,2.17,3,2.31,3.17a10.84,10.84,0,0,1,1.92,3.11c-.08.22-3,4.3-3.57,5-.09.11-.47.65-.85,1.2s-1.43,2-2.35,3.27c-2.5,3.41-3.4,4.64-4.38,6l-.9,1.25h-7.94c-4.36,0-7.93-.05-7.93-.12Z"/><path d="M463.4,114.09c-1-1.47-4.63-6.47-4.94-6.85s-2.12-2.86-3.92-5.37c-2.92-4.08-3.53-4.93-3.7-5.12s-.64-.86-1.18-1.64-1.53-2.15-2.19-3-1.33-1.81-1.49-2l-2.45-3.37-2.45-3.37-2.6-3.57c-2.2-3-4-5.51-8.9-12.26-1.18-1.62-3.21-4.43-4.52-6.22l-10.51-14.5c-2.12-2.92-4.06-5.61-4.33-6a3.71,3.71,0,0,1-.47-.77c0-.06,3.56-.12,7.91-.12h7.91L427.09,42c2.74,3.79,4,5.52,6.48,8.93,1.34,1.86,3.5,4.82,4.78,6.6s3,4.16,3.88,5.31,2,2.72,2.53,3.5,1.07,1.51,1.17,1.63,1.05,1.41,2.1,2.87,2.19,3,2.53,3.5c.54.74,2.28,3.14,6.34,8.76.73,1,1.41,1.93,1.5,2s1,1.35,2,2.76c2.35,3.25,6.29,8.69,8.71,12,1,1.42,2,2.77,2.18,3,1.74,2.42,4.59,6.36,6.86,9.46,1,1.38,1.84,2.55,1.84,2.6s-3.59.09-8,.09h-8Z"/><polygon points="389.94 95.74 389.94 91.35 390.96 91.35 391.98 91.35 391.98 94.62 391.98 97.89 393.46 97.89 394.94 97.89 394.94 94.97 394.94 92.06 395.91 92 396.88 91.94 396.88 94.91 396.88 97.89 398.41 97.89 399.94 97.89 399.94 94.62 399.94 91.35 400.96 91.35 401.99 91.35 401.99 95.74 401.99 100.13 395.96 100.13 389.94 100.13 389.94 95.74"/><path d="M397.29,84V82.17c0-2,.18-2.74.75-3a9.77,9.77,0,0,1,1.7-.24c2.32-.18,2.25-.14,2.25-1.42V76.42l-.67.11c-.36,0-1.31.16-2.09.23-1.63.15-2.07.32-2.7,1.07l-.44.52-.25-.54a3.48,3.48,0,0,0-2.53-1.37,3.53,3.53,0,0,0-2.81,1.71c-.39.75-.45,1.24-.53,4.47l-.08,3.62H402V84h-4.7Zm-1.84,0h-1.7a6.87,6.87,0,0,1-1.84-.14,12.64,12.64,0,0,1,.07-4,1.73,1.73,0,0,1,.92-.83,1.4,1.4,0,0,1,1.41,0c1,.41,1.14.85,1.14,3.07Z"/><polygon points="389.94 70.21 389.94 69.09 395.96 69.09 401.99 69.09 401.99 70.21 401.99 71.33 395.96 71.33 389.94 71.33 389.94 70.21"/><path d="M458,62.14l-4-5.49-2.14-2.93.65-.87c.36-.48.81-1.09,1-1.36L455.31,49l2.19-3c.39-.56.79-1.11.89-1.23s.93-1.24,1.84-2.51l1.67-2.3h15.9l-.36.57c-.2.3-.83,1.2-1.42,2s-1.34,1.84-1.7,2.35c-.56.8-2.07,2.89-3,4.17l-2.2,3c-1,1.42-2.71,3.74-3.72,5.16s-2,2.82-2.31,3.13-.87,1.15-1.37,1.88-1.13,1.6-1.4,1.94l-.49.6Z"/><path d="M390,63.11C390,63,390,61,390,58.67l.06-4.18,1-.07,1-.06v6.76h2.85l.05-3,.06-3h1.84l.05,3,.06,3h3.05V54.38H402l-.05,4.45-.06,4.44-5.87,0C391.35,63.37,390.11,63.32,390,63.11Z"/><path d="M398.1,48.58c0-1,0-1.11.59-1.24,1.11-.24,1.86-1.44,1.86-3a3.15,3.15,0,0,0-1-2.21c-1.3-.7-2.21.23-2.74,2.75-.4,1.92-1,3.26-1.84,3.86a2.84,2.84,0,0,1-1.93.43c-1.17,0-1.46-.08-2-.51a4.74,4.74,0,0,1-1.36-3.77c0-2.82,1-4.38,3.12-4.89.56-.13.56-.13.56,1s0,1.12-.6,1.32c-.91.32-1.34,1.13-1.32,2.53S392.07,47,393,47s1.32-.63,1.71-2.17c.7-2.82,1-3.58,1.57-4.24a3.35,3.35,0,0,1,5.27.68,7.72,7.72,0,0,1,.61,4.38c-.31,2-1.08,3.07-2.58,3.66s-1.48.5-1.48-.76Z"/></svg>