<svg id="Layer_1" data-name="Layer 1" xmlns="http://www.w3.org/2000/svg" viewBox="0 0 480 359"><defs><style>.cls-1,.cls-7{fill:#193580;}.cls-2{fill:#326aff;}.cls-3{fill:#c2bd9e;}.cls-4{fill:#f2f3f3;}.cls-5{fill:#1a1919;}.cls-6{fill:#333;}.cls-11,.cls-7{font-size:62.8px;font-family:Battlestar;}.cls-8{letter-spacing:-0.15em;}.cls-9{letter-spacing:-0.14em;}.cls-10{letter-spacing:-0.2em;}.cls-11{fill:#fff;}.cls-12{letter-spacing:-0.15em;}.cls-13{letter-spacing:-0.14em;}.cls-14{letter-spacing:0em;}.cls-15{fill:#e10101;}.cls-16{fill:#00d2b9;}.cls-17{fill:#ffe401;}</style></defs><title>consolepay-logo</title><circle class="cls-1" cx="239.41" cy="213.26" r="144.93"/><circle class="cls-2" cx="239.41" cy="202.63" r="144.93"/><path class="cls-3" d="M317.21,150.32h-155a60.91,60.91,0,1,0,53,91.52h49.31a60.91,60.91,0,1,0,52.66-91.52Z"/><path class="cls-4" d="M317.21,137.06h-155a60.91,60.91,0,1,0,53,91.51h49.31a60.91,60.91,0,1,0,52.66-91.52Z"/><path class="cls-3" d="M188.33,198H171.09V180.73a10.22,10.22,0,0,0-10.22-10.22h-.39a10.23,10.23,0,0,0-10.22,10.22V198h-16.6a10.22,10.22,0,0,0-10.22,10.22v.39a10.21,10.21,0,0,0,10.22,10.22h16.6v16.92a10.22,10.22,0,0,0,10.22,10.22h.39a10.21,10.21,0,0,0,10.22-10.22V218.8h17.24a10.22,10.22,0,0,0,10.22-10.22v-.39A10.23,10.23,0,0,0,188.33,198Z"/><path class="cls-5" d="M188.33,194.18H171.09V177a10.21,10.21,0,0,0-10.22-10.22h-.39A10.22,10.22,0,0,0,150.26,177v17.23h-16.6a10.22,10.22,0,0,0-10.22,10.22v.39A10.21,10.21,0,0,0,133.66,215h16.6v16.93a10.23,10.23,0,0,0,10.22,10.22h.39a10.22,10.22,0,0,0,10.22-10.22V215h17.24a10.22,10.22,0,0,0,10.22-10.22v-.39A10.23,10.23,0,0,0,188.33,194.18Z"/><path class="cls-6" d="M188.33,188.5H171.09V171.27a10.21,10.21,0,0,0-10.22-10.22h-.39a10.22,10.22,0,0,0-10.22,10.22V188.5h-16.6a10.22,10.22,0,0,0-10.22,10.22v.39a10.21,10.21,0,0,0,10.22,10.22h16.6v16.92a10.22,10.22,0,0,0,10.22,10.22h.39a10.21,10.21,0,0,0,10.22-10.22V209.33h17.24a10.22,10.22,0,0,0,10.22-10.22v-.39A10.23,10.23,0,0,0,188.33,188.5Z"/><circle class="cls-3" cx="348.77" cy="200.5" r="13.57"/><circle class="cls-5" cx="348.77" cy="198.6" r="13.57"/><circle class="cls-6" cx="348.77" cy="194.82" r="13.57"/><circle class="cls-3" cx="319.74" cy="171.46" r="13.57"/><circle class="cls-5" cx="319.74" cy="169.57" r="13.57"/><circle class="cls-6" cx="319.74" cy="165.78" r="13.57"/><circle class="cls-3" cx="291.97" cy="200.5" r="13.57"/><circle class="cls-5" cx="291.97" cy="198.6" r="13.57"/><circle class="cls-6" cx="291.97" cy="194.82" r="13.57"/><circle class="cls-3" cx="320.37" cy="228.9" r="13.57"/><circle class="cls-5" cx="320.37" cy="227.01" r="13.57"/><circle class="cls-6" cx="320.37" cy="223.22" r="13.57"/><path class="cls-6" d="M245.57,137.06c-6.69-7.79-15.25-20.27-17-36.61-1.87-17,4.82-27.42,11.36-53.65A283.57,283.57,0,0,0,247.47-.54H236.1a282.71,282.71,0,0,1-7.57,47.34C222,73,215.3,83.41,217.17,100.45c1.79,16.34,10.35,28.82,17,36.61Z"/><text class="cls-7" transform="translate(3.05 328.18)">Console<tspan class="cls-8" x="330.82" y="0">P</tspan><tspan class="cls-9" x="369.19" y="0">a</tspan><tspan class="cls-10" x="418.8" y="0">y</tspan><tspan x="456.73" y="0">.</tspan></text><text class="cls-11" transform="translate(-0.42 324.14)">Console<tspan class="cls-12" x="330.82" y="0">P</tspan><tspan class="cls-13" x="369.19" y="0">a</tspan><tspan class="cls-10" x="418.8" y="0">y</tspan><tspan class="cls-14" x="456.73" y="0">.</tspan></text><rect class="cls-15" x="402.86" y="333.2" width="66.86" height="5.2"/><rect class="cls-16" x="336.04" y="333.2" width="66.86" height="5.2"/><polygon class="cls-17" points="336.09 338.4 285.43 338.4 269.23 333.2 336.09 333.2 336.09 338.4"/></svg>