<svg id="Layer_1" data-name="Layer 1" xmlns="http://www.w3.org/2000/svg" viewBox="0 0 647 88"><defs><style>.cls-1{fill:#fff;}.cls-2{fill:#448cff;}.cls-3{fill:#e10101;}.cls-4{fill:#00d2b9;}.cls-5{fill:#ffe401;}</style></defs><title>consolepay-horizontal</title><path class="cls-1" d="M70.06,73.84H31.32A28.22,28.22,0,0,1,18.4,69.31Q5.49,60.51,5.49,39q0-20.54,14.28-29.08A34.16,34.16,0,0,1,34.06,5.42H69.38L65.45,12.6H35.68a24.72,24.72,0,0,0-11,3.33q-11,6.59-11,23.15,0,17.33,9.84,24.25a20.24,20.24,0,0,0,9.84,3.33H70.15Zm0-9.15H34.57a19.9,19.9,0,0,1-9.41-3.16q-9.32-6.33-9.32-22.24t10.6-21.9a24,24,0,0,1,10.61-2.82H64.59l-4.1,7.36H38.9a17.36,17.36,0,0,0-7.51,2.13q-7.6,4.29-7.6,15,0,11.55,6.58,16.17a14.24,14.24,0,0,0,6.57,2.31H70.15Z"/><path class="cls-1" d="M139.94,39.54a33.36,33.36,0,0,1-10.26,24.51A33.4,33.4,0,0,1,105.3,74.27,32.24,32.24,0,0,1,81.4,64.09a33.77,33.77,0,0,1-10-24.55A33,33,0,0,1,81.27,15.3a32.39,32.39,0,0,1,23.86-9.88,34.18,34.18,0,0,1,24.46,9.92A32.26,32.26,0,0,1,139.94,39.54Zm-8.21.13A26.28,26.28,0,0,0,124,20.42a25.55,25.55,0,0,0-18.86-7.82A23.76,23.76,0,0,0,87,20.25q-7.15,7.63-7.15,19.17t7.27,19.43a24,24,0,0,0,18.31,7.81,25.28,25.28,0,0,0,18.73-7.73A26.36,26.36,0,0,0,131.73,39.67Zm-2.65-.13a25.2,25.2,0,0,1-6.76,17.92,22.2,22.2,0,0,1-16.93,7.23,21.6,21.6,0,0,1-16.72-7.31,25.84,25.84,0,0,1-6.63-18q0-10.68,6.5-17.74a21.53,21.53,0,0,1,16.59-7.06,22.66,22.66,0,0,1,17.06,7.18A24.74,24.74,0,0,1,129.08,39.54Zm-7.61,0q0-7.95-4.57-12.78a15.41,15.41,0,0,0-11.73-4.83q-7.08,0-11.13,4.7T90,39.37q0,8,4.22,13.09a13.9,13.9,0,0,0,11.22,5,14.8,14.8,0,0,0,11.56-5Q121.46,47.51,121.47,39.54Z"/><path class="cls-1" d="M136.26,73.84v-7h18.56V14.57h9.63l20.38,52.26h14.3V5.42h8V73.84h-28L162.78,29.37V73.84Zm0-9.15V57.51h8.21V5.42h27.72L189,49V5.42h8.21V64.69H186.83L166.07,12.6H152.6V64.69Z"/><path class="cls-1" d="M270.64,12.52H231.46q-10.1.95-10.09,13.08,0,9.16,6.14,12.83a14.6,14.6,0,0,0,6.06,1.8h18a14.42,14.42,0,0,1,6,1.62q5.88,3.32,5.89,11.51.07,10.47-11.12,11.25H210.25v-7.1h40.11c3.54-.35,5.3-2,5.3-4.88,0-2.05-1.71-3.88-5.13-5.47H233.25a24.65,24.65,0,0,1-10-2.65q-10.09-5.4-10.1-18.82,0-12.92,9.2-17.88a22,22,0,0,1,9.11-2.39h44Zm-39.7,2.05q-7.44,2-7.44,11.51,0,7.76,5.91,10.65a14.44,14.44,0,0,0,5.9,1.45h17.27a17,17,0,0,1,6.68,1.88q6.58,3.78,6.5,13.3-.09,8.24-6,11.58a15.18,15.18,0,0,1-5.9,1.72H210.25v7.18H252.5a27.24,27.24,0,0,0,10.95-2.14q11-4.87,11-18.56t-9.84-19.33A24.34,24.34,0,0,0,254.81,31H234.88q-3.51-.76-3.51-5.17,0-4,3.77-3.89h29.5l4.79-7.36Z"/><path class="cls-1" d="M347.52,39.54a33.36,33.36,0,0,1-10.26,24.51,33.39,33.39,0,0,1-24.38,10.22A32.24,32.24,0,0,1,289,64.09a33.77,33.77,0,0,1-10-24.55,33,33,0,0,1,9.84-24.24,32.39,32.39,0,0,1,23.86-9.88,34.18,34.18,0,0,1,24.46,9.92A32.26,32.26,0,0,1,347.52,39.54Zm-8.21.13a26.28,26.28,0,0,0-7.74-19.25,25.55,25.55,0,0,0-18.86-7.82,23.77,23.77,0,0,0-18.17,7.65q-7.16,7.63-7.15,19.17t7.27,19.43A24,24,0,0,0,313,66.66a25.28,25.28,0,0,0,18.73-7.73A26.36,26.36,0,0,0,339.31,39.67Zm-2.65-.13a25.2,25.2,0,0,1-6.76,17.92A22.2,22.2,0,0,1,313,64.69a21.6,21.6,0,0,1-16.72-7.31,25.84,25.84,0,0,1-6.63-18q0-10.68,6.5-17.74a21.53,21.53,0,0,1,16.59-7.06,22.66,22.66,0,0,1,17.06,7.18A24.74,24.74,0,0,1,336.66,39.54Zm-7.61,0q0-7.95-4.57-12.78a15.41,15.41,0,0,0-11.73-4.83c-4.72,0-8.42,1.57-11.13,4.7s-4.05,7.38-4.05,12.74,1.41,9.73,4.22,13.09a13.9,13.9,0,0,0,11.22,5,14.8,14.8,0,0,0,11.56-5Q329,47.51,329.05,39.54Z"/><path class="cls-1" d="M343.5,5.42h26.86V57.59h29.16l-4.44,7.19H362.4V12.6H343.5Zm0,9.24v7.27h8.55V73.84h37.72l4.19-7H360.27V14.66Z"/><path class="cls-1" d="M390.63,12.6V5.42h62.43l-4.87,7.18Zm0,9.33V14.57h18.56V66.74h43.53l.09,7.1H401V21.93Zm62.09,16.33V31.08H419.28V21.93h22.58l4.88-7.36H411.33V38.26Zm0,19.25H419.28V47.16h33.27l.09-6.93H411.33V64.69h41.39Z"/><path class="cls-1" d="M518.24,27.74q0,12.92-8.81,19.42a23.6,23.6,0,0,1-8.81,3.93h-20.1l-3.25-7.18h21.58q11.43-5.11,11.43-16T498.33,12.6H464.18V73.84h-8.12V5.42h44a24,24,0,0,1,9.07,3.42Q518.24,14.83,518.24,27.74Zm-10.44,0q0,8.9-10.32,13.94H474.36V73.84h-7.95V14.57h30.7Q507.81,18.85,507.8,27.74Zm-7.95.17c0-3.47-2-5.47-5.88-6H474.36V35.1h19.95Q499.85,33.21,499.85,27.91Z"/><path class="cls-1" d="M584.87,73.84H539.19l-4.1-7.18h37.84L552.05,12.52H541L520.15,64.69H508.32V57.51h6.5l20.7-52h22.41Zm-15.14-9.15H534.32L532,60.93l-5.47,12.91H508.32V66.66h13.26l20.78-52.18h8.47Zm-11.11-7.18-12.3-32.9-12.81,32.9Z"/><path class="cls-1" d="M599.24,73.84V47.16L585.12,21.93H570.93V14.57h18.41l17.59,29.88V73.84ZM571.1,5.42v7.1h19.24l17.59,29.86,21.75-37h-8.55L607.87,27.83,594.1,5.42Zm38,68.42V45.05L631.85,5.42h8.95L617,47.15V73.84Z"/><path class="cls-1" d="M627.55,57.51h18.21v7.18H627.55Zm0,9.15h18.21v7.18H627.55Z"/><path class="cls-2" d="M65.34,68.33H26.6A28.18,28.18,0,0,1,13.68,63.8Q.77,55,.77,33.44q0-20.53,14.28-29.08A34.16,34.16,0,0,1,29.33-.09H64.66L60.72,7.09H31a24.76,24.76,0,0,0-11,3.33Q8.9,17,8.89,33.57q0,17.32,9.84,24.25a20.17,20.17,0,0,0,9.83,3.33H65.43Zm0-9.15H29.85A19.8,19.8,0,0,1,20.44,56q-9.33-6.33-9.32-22.24t10.6-21.9A23.93,23.93,0,0,1,32.33,9.06H59.87l-4.1,7.36H34.18a17.32,17.32,0,0,0-7.51,2.13q-7.6,4.29-7.6,15,0,11.55,6.57,16.17A14.28,14.28,0,0,0,32.22,52H65.43Z"/><path class="cls-2" d="M135.22,34A33.35,33.35,0,0,1,125,58.54a33.4,33.4,0,0,1-24.38,10.22A32.25,32.25,0,0,1,76.67,58.58,33.8,33.8,0,0,1,66.71,34,33.06,33.06,0,0,1,76.54,9.79,32.43,32.43,0,0,1,100.41-.09a34.18,34.18,0,0,1,24.46,9.92A32.26,32.26,0,0,1,135.22,34Zm-8.21.12a26.3,26.3,0,0,0-7.74-19.25,25.55,25.55,0,0,0-18.86-7.82,23.78,23.78,0,0,0-18.18,7.65q-7.14,7.63-7.14,19.17t7.27,19.43a24,24,0,0,0,18.3,7.81,25.29,25.29,0,0,0,18.74-7.73A26.36,26.36,0,0,0,127,34.16ZM124.36,34A25.24,25.24,0,0,1,117.6,52a22.22,22.22,0,0,1-16.94,7.23,21.63,21.63,0,0,1-16.72-7.31,25.84,25.84,0,0,1-6.63-18q0-10.68,6.5-17.74a21.57,21.57,0,0,1,16.6-7.06,22.69,22.69,0,0,1,17.06,7.19A24.72,24.72,0,0,1,124.36,34Zm-7.62,0q0-8-4.56-12.79a15.41,15.41,0,0,0-11.73-4.83q-7.08,0-11.13,4.7t-4,12.74q0,8,4.22,13.09a13.88,13.88,0,0,0,11.22,5,14.8,14.8,0,0,0,11.56-5Q116.74,42,116.74,34Z"/><path class="cls-2" d="M131.54,68.33v-7H150.1V9.06h9.63l20.38,52.26h14.3V-.09h8V68.33h-28L158.06,23.86V68.33Zm0-9.15V52h8.21V-.09h27.71l16.85,43.62V-.09h8.21V59.18H182.11L161.34,7.09H147.88V59.18Z"/><path class="cls-2" d="M265.92,7H226.74q-10.1.95-10.1,13.08,0,9.16,6.15,12.83a14.6,14.6,0,0,0,6.06,1.8h18a14.42,14.42,0,0,1,6,1.62q5.89,3.31,5.89,11.51.09,10.47-11.12,11.25H205.52V52h40.12c3.53-.35,5.3-2,5.3-4.88,0-2-1.71-3.88-5.13-5.47H228.53a24.75,24.75,0,0,1-10-2.65q-10.08-5.4-10.09-18.82,0-12.91,9.2-17.88a22,22,0,0,1,9.11-2.39h44Zm-39.7,2.05q-7.44,2-7.44,11.51,0,7.75,5.9,10.65a14.48,14.48,0,0,0,5.9,1.45h17.28a16.86,16.86,0,0,1,6.67,1.88q6.59,3.78,6.5,13.3-.07,8.24-6,11.58a15.23,15.23,0,0,1-5.91,1.72H205.52v7.18h42.26a27.15,27.15,0,0,0,10.94-2.14q11-4.87,11-18.56T259.92,28.3a24.44,24.44,0,0,0-9.84-2.82H230.16q-3.51-.77-3.51-5.17,0-4,3.76-3.89h29.51l4.79-7.36Z"/><path class="cls-2" d="M342.8,34a33.35,33.35,0,0,1-10.26,24.5,33.4,33.4,0,0,1-24.38,10.22,32.26,32.26,0,0,1-23.91-10.18,33.8,33.8,0,0,1-10-24.54,33,33,0,0,1,9.84-24.25A32.39,32.39,0,0,1,308-.09a34.18,34.18,0,0,1,24.46,9.92A32.26,32.26,0,0,1,342.8,34Zm-8.21.12a26.3,26.3,0,0,0-7.74-19.25A25.55,25.55,0,0,0,308,7.09a23.78,23.78,0,0,0-18.18,7.65q-7.14,7.63-7.14,19.17t7.27,19.43a24,24,0,0,0,18.3,7.81A25.29,25.29,0,0,0,327,53.42,26.36,26.36,0,0,0,334.59,34.16ZM331.94,34A25.24,25.24,0,0,1,325.18,52a22.22,22.22,0,0,1-16.94,7.23,21.63,21.63,0,0,1-16.72-7.31,25.83,25.83,0,0,1-6.62-18q0-10.68,6.5-17.74A21.53,21.53,0,0,1,308,9.06a22.69,22.69,0,0,1,17.06,7.19A24.72,24.72,0,0,1,331.94,34Zm-7.62,0q0-8-4.56-12.79A15.41,15.41,0,0,0,308,16.42q-7.08,0-11.13,4.7t-4,12.74q0,8,4.22,13.09a13.88,13.88,0,0,0,11.22,5,14.8,14.8,0,0,0,11.56-5Q324.32,42,324.32,34Z"/><path class="cls-2" d="M338.78-.09h26.86V52.08H394.8l-4.45,7.19H357.68V7.09h-18.9Zm0,9.24v7.27h8.55V68.33h37.72l4.19-7h-33.7V9.15Z"/><path class="cls-2" d="M385.91,7.09V-.09h62.43l-4.87,7.18Zm0,9.33V9.06h18.56V61.23H448l.09,7.1H396.25V16.42ZM448,32.75V25.57H414.56V16.42h22.58L442,9.06H406.6V32.75ZM448,52H414.56V41.65h33.27l.08-6.93H406.6V59.18H448Z"/><path class="cls-2" d="M513.52,22.23q0,12.91-8.81,19.42a23.67,23.67,0,0,1-8.81,3.93H475.8l-3.25-7.18h21.58q11.43-5.11,11.43-16T493.61,7.09H459.46V68.33h-8.12V-.09h44a24,24,0,0,1,9.06,3.42Q513.51,9.32,513.52,22.23Zm-10.44,0q0,8.9-10.32,13.94H469.64V68.33h-8V9.06h30.71Q503.09,13.34,503.08,22.23Zm-7.95.17c0-3.47-2-5.47-5.88-6H469.64V29.59h19.95Q495.13,27.7,495.13,22.4Z"/><path class="cls-2" d="M580.15,68.33H534.47l-4.1-7.18h37.84L547.33,7h-11L515.43,59.18H503.6V52h6.5L530.79,0H553.2ZM565,59.18H529.6l-2.31-3.76-5.48,12.91H503.6V61.15h13.25L537.63,9h8.47ZM553.89,52,541.6,19.1,528.78,52Z"/><path class="cls-2" d="M594.51,68.33V41.65L580.4,16.42H566.2V9.06h18.42l17.59,29.88V68.33ZM566.37-.09V7h19.25l17.59,29.86L625-.09H616.4L603.15,22.32,589.38-.09Zm38,68.42V39.54L627.12-.09h9L612.3,41.64V68.33Z"/><path class="cls-2" d="M622.82,52H641v7.18H622.82Zm0,9.15H641v7.18H622.82Z"/><rect class="cls-3" x="549.93" y="80.67" width="91.07" height="7.08"/><rect class="cls-4" x="458.93" y="80.67" width="91.07" height="7.08"/><polygon class="cls-5" points="459 87.76 390 87.76 367.93 80.67 459 80.67 459 87.76"/></svg>