<svg id="Layer_1" data-name="Layer 1" xmlns="http://www.w3.org/2000/svg" viewBox="0 0 480 359"><defs><style>.cls-1{fill:#193580;}.cls-2{fill:#326aff;}.cls-3{fill:#c2bd9e;}.cls-4{fill:#f2f3f3;}.cls-5{fill:#1a1919;}.cls-6{fill:#333;}.cls-7{fill:#fff;}.cls-8{fill:#e10101;}.cls-9{fill:#00d2b9;}.cls-10{fill:#ffe401;}</style></defs><title>consolepay-logo</title><circle class="cls-1" cx="239.41" cy="213.26" r="144.93"/><circle class="cls-2" cx="239.41" cy="202.63" r="144.93"/><path class="cls-3" d="M315.19,146.37H164.29a59.32,59.32,0,1,0,51.59,89.13h48a59.32,59.32,0,1,0,51.29-89.13Z"/><path class="cls-4" d="M315.19,133.46H164.29a59.32,59.32,0,1,0,51.59,89.13h48a59.32,59.32,0,1,0,51.29-89.13Z"/><path class="cls-3" d="M189.68,192.78H172.89V176a9.94,9.94,0,0,0-9.95-10h-.38a9.94,9.94,0,0,0-9.95,10v16.79H136.44a10,10,0,0,0-10,9.95v.38a10,10,0,0,0,10,9.95h16.17v16.48a9.94,9.94,0,0,0,9.95,10h.38a9.94,9.94,0,0,0,9.95-10V213.06h16.79a10,10,0,0,0,9.95-9.95v-.38A10,10,0,0,0,189.68,192.78Z"/><path class="cls-5" d="M189.68,189.09H172.89V172.3a10,10,0,0,0-9.95-10h-.38a10,10,0,0,0-9.95,10v16.79H136.44a10,10,0,0,0-10,9.95v.38a10,10,0,0,0,10,10h16.17v16.48a9.94,9.94,0,0,0,9.95,10h.38a9.94,9.94,0,0,0,9.95-10V209.37h16.79a10,10,0,0,0,9.95-10V199A10,10,0,0,0,189.68,189.09Z"/><path class="cls-6" d="M189.68,183.56H172.89V166.77a9.94,9.94,0,0,0-9.95-10h-.38a9.94,9.94,0,0,0-9.95,10v16.79H136.44a10,10,0,0,0-10,9.95v.38a10,10,0,0,0,10,10h16.17v16.48a9.94,9.94,0,0,0,9.95,10h.38a9.94,9.94,0,0,0,9.95-10V203.84h16.79a10,10,0,0,0,9.95-10v-.38A10,10,0,0,0,189.68,183.56Z"/><circle class="cls-3" cx="345.92" cy="195.23" r="13.22"/><circle class="cls-5" cx="345.92" cy="193.39" r="13.22"/><circle class="cls-6" cx="345.92" cy="189.7" r="13.22"/><circle class="cls-3" cx="317.65" cy="166.96" r="13.22"/><circle class="cls-5" cx="317.65" cy="165.12" r="13.22"/><circle class="cls-6" cx="317.65" cy="161.43" r="13.22"/><circle class="cls-3" cx="290.6" cy="195.23" r="13.22"/><circle class="cls-5" cx="290.6" cy="193.39" r="13.22"/><circle class="cls-6" cx="290.6" cy="189.7" r="13.22"/><circle class="cls-3" cx="318.26" cy="222.89" r="13.22"/><circle class="cls-5" cx="318.26" cy="221.05" r="13.22"/><circle class="cls-6" cx="318.26" cy="217.36" r="13.22"/><path class="cls-6" d="M245.42,133.46c-6.51-7.59-14.85-19.74-16.59-35.65-1.82-16.6,4.69-26.71,11.06-52.25a276.14,276.14,0,0,0,7.38-46.1H236.2a275.28,275.28,0,0,1-7.37,46.1c-6.37,25.54-12.89,35.65-11.07,52.25,1.75,15.91,10.09,28.06,16.6,35.65Z"/><path class="cls-1" d="M50.53,328.18H22.08a20.67,20.67,0,0,1-9.48-3.33q-9.48-6.47-9.48-22.29,0-15.07,10.48-21.35a25.16,25.16,0,0,1,10.49-3.27H50l-2.89,5.28H25.28a18.07,18.07,0,0,0-8.1,2.44q-8.1,4.83-8.1,17,0,12.74,7.22,17.81a14.86,14.86,0,0,0,7.22,2.45H50.59Zm0-6.72H24.47a14.52,14.52,0,0,1-6.91-2.32q-6.84-4.65-6.85-16.33t7.79-16.08a17.62,17.62,0,0,1,7.79-2.07H46.51l-3,5.4H27.65a12.75,12.75,0,0,0-5.52,1.57q-5.58,3.15-5.58,11,0,8.47,4.83,11.87a10.44,10.44,0,0,0,4.83,1.7H50.59Z"/><path class="cls-1" d="M101.83,303A25.68,25.68,0,0,1,76.4,328.5,23.7,23.7,0,0,1,58.85,321a24.82,24.82,0,0,1-7.32-18,24.25,24.25,0,0,1,7.22-17.8,23.81,23.81,0,0,1,17.52-7.26,25.06,25.06,0,0,1,18,7.29A23.66,23.66,0,0,1,101.83,303Zm-6,.09A19.31,19.31,0,0,0,90.12,289a18.76,18.76,0,0,0-13.85-5.73,17.45,17.45,0,0,0-13.34,5.61,19.78,19.78,0,0,0-5.24,14.07A20.14,20.14,0,0,0,63,317.17a17.6,17.6,0,0,0,13.44,5.74,18.59,18.59,0,0,0,13.76-5.68A19.35,19.35,0,0,0,95.8,303.09ZM93.86,303a18.58,18.58,0,0,1-5,13.16,16.35,16.35,0,0,1-12.44,5.3,15.84,15.84,0,0,1-12.27-5.37,18.93,18.93,0,0,1-4.87-13.22,18.51,18.51,0,0,1,4.77-13,15.84,15.84,0,0,1,12.18-5.18,16.64,16.64,0,0,1,12.53,5.28A18.14,18.14,0,0,1,93.86,303Zm-5.59,0a13.15,13.15,0,0,0-3.35-9.39,11.36,11.36,0,0,0-8.61-3.55,10.22,10.22,0,0,0-8.18,3.46q-3,3.45-3,9.35a14.45,14.45,0,0,0,3.1,9.61,10.19,10.19,0,0,0,8.23,3.71A10.87,10.87,0,0,0,85,312.51,13.73,13.73,0,0,0,88.27,303Z"/><path class="cls-1" d="M99.13,328.18V323h13.63V284.66h7.07l15,38.37h10.5V277.94h5.84v50.24H130.59l-12-32.65v32.65Zm0-6.72v-5.27h6V277.94h20.35l12.37,32v-32h6v43.52h-7.65L121,283.22h-9.88v38.24Z"/><path class="cls-1" d="M197.79,283.15H169q-7.41.71-7.41,9.61,0,6.72,4.51,9.42a10.74,10.74,0,0,0,4.45,1.32H183.8a10.67,10.67,0,0,1,4.39,1.19q4.32,2.44,4.32,8.45.06,7.69-8.16,8.26h-30.9v-5.21H182.9q3.9-.39,3.9-3.58,0-2.26-3.77-4H170.34a18,18,0,0,1-7.34-1.95q-7.41-4-7.41-13.81,0-9.49,6.75-13.13a16.15,16.15,0,0,1,6.69-1.76H201.3Zm-29.14,1.51q-5.46,1.5-5.46,8.45,0,5.7,4.33,7.82a10.38,10.38,0,0,0,4.33,1.06h12.69a12.44,12.44,0,0,1,4.9,1.39q4.83,2.78,4.77,9.76-.06,6-4.4,8.51a11.22,11.22,0,0,1-4.33,1.26h-32v5.27h31a20,20,0,0,0,8-1.57q8.1-3.58,8.1-13.63t-7.22-14.19a17.83,17.83,0,0,0-7.22-2.07H171.54q-2.58-.56-2.58-3.8c0-1.95.92-2.9,2.77-2.86h21.66l3.52-5.4Z"/><path class="cls-1" d="M254.24,303a25.68,25.68,0,0,1-25.43,25.5A23.68,23.68,0,0,1,211.26,321a24.82,24.82,0,0,1-7.32-18,24.25,24.25,0,0,1,7.22-17.8,23.81,23.81,0,0,1,17.52-7.26,25.06,25.06,0,0,1,18,7.29A23.66,23.66,0,0,1,254.24,303Zm-6,.09A19.31,19.31,0,0,0,242.53,289a18.76,18.76,0,0,0-13.85-5.73,17.45,17.45,0,0,0-13.34,5.61,19.78,19.78,0,0,0-5.24,14.07,20.14,20.14,0,0,0,5.33,14.27,17.6,17.6,0,0,0,13.44,5.74,18.59,18.59,0,0,0,13.76-5.68A19.35,19.35,0,0,0,248.21,303.09Zm-1.94-.09a18.58,18.58,0,0,1-5,13.16,16.35,16.35,0,0,1-12.44,5.3,15.84,15.84,0,0,1-12.27-5.37,18.93,18.93,0,0,1-4.87-13.22,18.51,18.51,0,0,1,4.77-13,15.84,15.84,0,0,1,12.18-5.18,16.64,16.64,0,0,1,12.53,5.28A18.14,18.14,0,0,1,246.27,303Zm-5.59,0a13.15,13.15,0,0,0-3.35-9.39,11.36,11.36,0,0,0-8.61-3.55,10.22,10.22,0,0,0-8.18,3.46q-3,3.45-3,9.35a14.45,14.45,0,0,0,3.1,9.61,10.19,10.19,0,0,0,8.23,3.71,10.87,10.87,0,0,0,8.49-3.68A13.73,13.73,0,0,0,240.68,303Z"/><path class="cls-1" d="M251.29,277.94H271v38.31h21.41l-3.26,5.27h-24v-38.3H251.29Zm0,6.78v5.34h6.28v38.12h27.69l3.08-5.15H263.6V284.72Z"/><path class="cls-1" d="M285.89,283.22v-5.28h45.84l-3.57,5.28Zm0,6.84v-5.4h13.63V323h32l.07,5.21H293.49V290.06Zm45.59,12v-5.28H306.93v-6.72h16.58l3.58-5.4h-26v17.4Zm0,14.13H306.93v-7.6h24.43l.06-5.09H301.09v18h30.39Z"/><path class="cls-1" d="M379.59,294.33q0,9.48-6.47,14.26a17.34,17.34,0,0,1-6.47,2.89H351.89l-2.38-5.28h15.84q8.4-3.75,8.4-11.77T365,283.22H339.9v45h-6V277.94h32.28a17.62,17.62,0,0,1,6.66,2.51Q379.59,284.85,379.59,294.33Zm-7.66,0q0,6.54-7.58,10.24h-17v23.61h-5.84V284.66h22.55Q371.93,287.81,371.93,294.33Zm-5.85.13c0-2.55-1.43-4-4.31-4.4h-14.4v9.67H362Q366.09,298.35,366.08,294.46Z"/><path class="cls-1" d="M428.51,328.18H395l-3-5.27h27.79l-15.34-39.76h-8.1L381,321.46H372.3v-5.27h4.78L392.27,278h16.46Zm-11.12-6.72h-26l-1.69-2.76-4,9.48H372.3v-5.27H382L397.3,284.6h6.21Zm-8.16-5.27-9-24.16-9.41,24.16Z"/><path class="cls-1" d="M439.06,328.18V308.59l-10.37-18.53H418.27v-5.4h13.52l12.92,21.94v21.58ZM418.4,277.94v5.21h14.13l12.91,21.93,16-27.14h-6.28L445.4,294.4l-10.11-16.46Zm27.88,50.24V307L463,277.94h6.58l-17.46,30.65v19.59Z"/><path class="cls-1" d="M459.84,316.19h13.38v5.27H459.84Zm0,6.72h13.38v5.27H459.84Z"/><path class="cls-7" d="M47.06,324.14H18.61a20.72,20.72,0,0,1-9.48-3.33q-9.48-6.46-9.48-22.3,0-15.06,10.48-21.35a25.3,25.3,0,0,1,10.49-3.26H46.56l-2.89,5.27H21.81a18.08,18.08,0,0,0-8.1,2.45q-8.1,4.83-8.1,17,0,12.74,7.22,17.81a14.86,14.86,0,0,0,7.23,2.44H47.12Zm0-6.72H21a14.57,14.57,0,0,1-6.91-2.33q-6.84-4.63-6.84-16.32T15,282.69a17.62,17.62,0,0,1,7.79-2.07H43L40,286H24.18a12.79,12.79,0,0,0-5.52,1.57q-5.58,3.14-5.57,11,0,8.48,4.82,11.87a10.43,10.43,0,0,0,4.83,1.69H47.12Z"/><path class="cls-7" d="M98.36,299a25.66,25.66,0,0,1-25.43,25.49A23.7,23.7,0,0,1,55.38,317a24.82,24.82,0,0,1-7.32-18,24.26,24.26,0,0,1,7.23-17.81,23.81,23.81,0,0,1,17.52-7.25,25.13,25.13,0,0,1,18,7.28A23.71,23.71,0,0,1,98.36,299Zm-6,.09a19.32,19.32,0,0,0-5.69-14.14,18.77,18.77,0,0,0-13.84-5.74,17.46,17.46,0,0,0-13.35,5.62,19.83,19.83,0,0,0-5.24,14.07,20.15,20.15,0,0,0,5.34,14.27A17.56,17.56,0,0,0,73,318.86a18.57,18.57,0,0,0,13.76-5.67A19.39,19.39,0,0,0,92.34,299.05Zm-2-.09a18.55,18.55,0,0,1-5,13.15A16.31,16.31,0,0,1,73,317.42a15.84,15.84,0,0,1-12.27-5.37,19,19,0,0,1-4.87-13.22,18.5,18.5,0,0,1,4.77-13,15.82,15.82,0,0,1,12.19-5.18,16.66,16.66,0,0,1,12.52,5.27A18.16,18.16,0,0,1,90.39,299Zm-5.59,0a13.11,13.11,0,0,0-3.35-9.39A11.29,11.29,0,0,0,72.84,286a10.21,10.21,0,0,0-8.17,3.45c-2,2.31-3,5.42-3,9.36a14.47,14.47,0,0,0,3.1,9.61,10.2,10.2,0,0,0,8.24,3.7,10.85,10.85,0,0,0,8.48-3.67A13.73,13.73,0,0,0,84.8,299Z"/><path class="cls-7" d="M95.66,324.14V319h13.63V280.62h7.07l15,38.37h10.5V273.9h5.84v50.24H127.13l-12-32.66v32.66Zm0-6.72v-5.28h6V273.9H122l12.37,32v-32h6v43.52h-7.65l-15.24-38.25h-9.89v38.25Z"/><path class="cls-7" d="M194.33,279.11H165.56q-7.41.69-7.41,9.61,0,6.72,4.51,9.42a10.74,10.74,0,0,0,4.45,1.32h13.22a10.47,10.47,0,0,1,4.39,1.19q4.32,2.43,4.32,8.44c.05,5.14-2.68,7.89-8.16,8.26H150v-5.21h29.46q3.88-.37,3.89-3.58,0-2.25-3.77-4H166.88a18,18,0,0,1-7.35-1.94q-7.41-4-7.41-13.82,0-9.48,6.75-13.12a16,16,0,0,1,6.69-1.76h32.28Zm-29.15,1.51q-5.46,1.5-5.46,8.45,0,5.69,4.33,7.82a10.54,10.54,0,0,0,4.33,1.06h12.69a12.55,12.55,0,0,1,4.9,1.38q4.83,2.78,4.77,9.77-.06,6-4.4,8.5a11.22,11.22,0,0,1-4.33,1.26H150v5.28h31a20.07,20.07,0,0,0,8-1.57q8.1-3.58,8.11-13.63t-7.23-14.19a18,18,0,0,0-7.22-2.08H168.07c-1.72-.37-2.57-1.63-2.57-3.79,0-1.95.92-2.9,2.76-2.86h21.66l3.52-5.4Z"/><path class="cls-7" d="M250.77,299a25.66,25.66,0,0,1-25.43,25.49A23.7,23.7,0,0,1,207.79,317a24.82,24.82,0,0,1-7.32-18,24.26,24.26,0,0,1,7.23-17.81,23.81,23.81,0,0,1,17.52-7.25,25.13,25.13,0,0,1,18,7.28A23.71,23.71,0,0,1,250.77,299Zm-6,.09a19.32,19.32,0,0,0-5.69-14.14,18.77,18.77,0,0,0-13.84-5.74,17.46,17.46,0,0,0-13.35,5.62,19.83,19.83,0,0,0-5.24,14.07A20.15,20.15,0,0,0,212,313.13a17.56,17.56,0,0,0,13.43,5.73,18.57,18.57,0,0,0,13.76-5.67A19.39,19.39,0,0,0,244.75,299.05ZM242.8,299a18.51,18.51,0,0,1-5,13.15,16.31,16.31,0,0,1-12.44,5.31,15.84,15.84,0,0,1-12.27-5.37,19,19,0,0,1-4.87-13.22,18.5,18.5,0,0,1,4.77-13,15.82,15.82,0,0,1,12.19-5.18,16.66,16.66,0,0,1,12.52,5.27A18.16,18.16,0,0,1,242.8,299Zm-5.59,0a13.11,13.11,0,0,0-3.35-9.39,11.29,11.29,0,0,0-8.61-3.55,10.21,10.21,0,0,0-8.17,3.45c-2,2.31-3,5.42-3,9.36a14.47,14.47,0,0,0,3.1,9.61,10.2,10.2,0,0,0,8.24,3.7,10.85,10.85,0,0,0,8.48-3.67A13.73,13.73,0,0,0,237.21,299Z"/><path class="cls-7" d="M247.82,273.9h19.72v38.31H289l-3.27,5.27h-24V279.17H247.82Zm0,6.78V286h6.28v38.12h27.7l3.07-5.15H260.13V280.68Z"/><path class="cls-7" d="M282.42,279.17V273.9h45.85l-3.58,5.27Zm0,6.85v-5.4h13.63v38.3h32l.06,5.22H290V286ZM328,298v-5.27H303.46V286H320l3.58-5.4h-26V298Zm0,14.13H303.46v-7.6h24.43l.06-5.08H297.62v18H328Z"/><path class="cls-7" d="M376.12,290.29q0,9.48-6.47,14.25a17.18,17.18,0,0,1-6.47,2.89H348.42L346,302.16h15.85q8.39-3.77,8.39-11.78t-8.78-11.21H336.43v45h-6V273.9h32.28a17.55,17.55,0,0,1,6.66,2.51Q376.12,280.8,376.12,290.29Zm-7.66,0q0,6.52-7.58,10.23h-17v23.62h-5.84V280.62h22.55Q368.45,283.76,368.46,290.29Zm-5.84.12q0-3.82-4.32-4.39H343.9v9.67h14.65Q362.62,294.31,362.62,290.41Z"/><path class="cls-7" d="M425,324.14H391.5l-3-5.28h27.79l-15.34-39.75h-8.1l-15.32,38.31h-8.69v-5.28h4.78L388.8,274h16.46Zm-11.12-6.72h-26l-1.69-2.77-4,9.49H368.83v-5.28h9.74l15.26-38.31H400Zm-8.16-5.28-9-24.15-9.41,24.15Z"/><path class="cls-7" d="M435.59,324.14v-19.6L425.23,286H414.8v-5.4h13.52l12.92,21.94v21.58ZM414.93,273.9v5.21h14.13L442,301l16-27.14h-6.28l-9.73,16.45L431.82,273.9Zm27.88,50.24V303l16.72-29.1h6.58l-17.46,30.64v19.6Z"/><path class="cls-7" d="M456.37,312.14h13.38v5.28H456.37Zm0,6.72h13.38v5.28H456.37Z"/><rect class="cls-8" x="403" y="333" width="67" height="5"/><rect class="cls-9" x="336" y="333" width="67" height="5"/><polygon class="cls-10" points="336 338 287.3 338 271.72 333 336 333 336 338"/></svg>