<svg id="Layer_1" data-name="Layer 1" xmlns="http://www.w3.org/2000/svg" viewBox="0 0 480 480"><defs><style>.cls-1{fill:#fff;}</style></defs><title>arrow</title><path class="cls-1" d="M81.87,240.84c0-15.18-.06-30.36,0-45.54.07-12.72,5.39-17,18.19-15.36,14.83,1.94,29.73.54,44.59.6,27.88.09,55.75-1.24,83.62,1.65,17.19,1.79,20.6-2.72,18.12-19.41-.94-6.39-.82-13-.85-19.46,0-6.28,3.4-7.56,8.5-4.85a82.39,82.39,0,0,1,12.63,7.73c38.56,30.65,80.3,56.88,119.68,86.4,15.61,11.7,15.92,12.25-.43,23-42.91,28.12-83.64,59.58-129,84-2.34,1.26-4.31,4.32-7.35,2.95-4-1.79-1.4-5.5-1.61-8.3-.72-9.88-1.87-19.81-1.39-29.66.33-6.85-2.59-8-7.95-7.7-46.16,2.33-92.36.05-138.53,1.21-13.8.35-18.54-1.62-17-16.4,1.35-13.49.28-27.22.28-40.84Zm170-95.79c-1.44,7.56,1.1,14.16,1.45,20.94.87,16.87-4.5,23.43-21.45,22.14-31.9-2.42-63.77-1.53-95.67-1.54-11.76,0-23.56.26-35.29-.44C89,185.44,87.2,186.38,88,198.61c1.49,23.84,1.52,47.7,1.08,71.55-.14,7.42,2.28,8.75,8.87,8.67,47.09-.59,94.18-.91,141.27-1.25,10.75-.08,13.83,3.05,14.05,13.71.17,8.49-1.78,17.08,1.08,26.25,2.71-1.76,5-3.16,7.21-4.68,35.69-24.48,70.27-50.59,106.86-73.74,8.06-5.1,6.3-7.3-.18-12.13-34.47-25.72-71.13-48.38-104.58-75.5C260.36,148.84,257,146,251.87,145.05ZM365.25,260.27c12.08-2.9,16.72-11,16-23C372.48,242.8,364.39,248.52,365.25,260.27ZM343.51,276c10.56-5.16,17.37-10.91,15.15-22.43C346.9,255.84,348,266.59,343.51,276ZM323.69,290.4c7.26-4.29,14-8,14.71-16.89.14-1.75,1.37-3.86-.52-5s-3.38.74-4.9,1.69C325.67,274.78,324.73,282.19,323.69,290.4Zm-5.5-9c-11.44,6.5-13.37,9.72-13.51,22C314.8,299.66,317.12,291.2,318.19,281.41Zm-20.51,15c-11.1,2.22-11.61,11.17-13.93,19.64C293.55,312.61,298.67,306.72,297.68,296.46Zm-125.3-12.18c-7,.18-13.77-2-16.07,6.85C163.08,293,168.31,291.6,172.38,284.28Zm-39.32.25c-6.69-.21-13.31-2.46-14.84,7C124,291.67,130.19,293.5,133.06,284.53Zm77.51.51c-6.94-1.34-13.24-2.61-16.22,6.32C200.88,292.41,206.68,292.26,210.57,285Zm56,40.88c9.15-2.47,10-9.9,12.49-17.15C271.36,312.17,267,317,266.6,325.92ZM137.78,291.05c6.59,2,10.87,0,13.74-6.6C145.68,284.44,139.7,282.1,137.78,291.05Zm77.31.1c9,.8,9,.8,13.33-6.33C218.81,283.94,218.81,283.94,215.09,291.15Zm-101.46-6.47c-10.1-.4-10.2-.33-10.38,7.17C107.93,291.82,111.62,290.31,113.63,284.68Zm76.75.31c-7-1.77-11.6-.73-13.66,6.34C182.82,292.7,186.38,289.47,190.38,285Zm43.89,5.24c3.92.78,7.57,1.57,9.34-3.11.62-1.63.37-3.23-1.61-3.45C237.35,283.18,235.86,286.62,234.27,290.23ZM255.22,334c2.42-4.44,4.68-7.5,4.47-11.8C254.36,324.35,251.93,327.34,255.22,334Z"/></svg>