<svg id="Layer_1" data-name="Layer 1" xmlns="http://www.w3.org/2000/svg" viewBox="0 0 480 480"><defs><style>.cls-1{fill:#fff;}</style></defs><title>Artboard 20</title><path class="cls-1" d="M426.07,325.69l13.12-3.78c-2.11-3-3.28-5.66-5.29-7.33-13.18-10.93-27.83-18.2-45.57-17.18-1.12.06-3,.24-3.26-.26-2.25-4.64-6.54-3-10.09-3.45-3.26-.43-6.56-.56-9.84-.83,0-.2,0-.4.07-.6L381.44,290a30.12,30.12,0,0,0-.8-3c-8.78-22-22.66-40.64-38.87-57.65a5.27,5.27,0,0,0-3.92-1.36c-4.55.57-9.05,1.52-14.06,2.42.9,1.83,1.4,3,2,4.13,9.29,15.79,18.7,31.52,27.8,47.42a13.88,13.88,0,0,1,1.67,8.37c-3.62,23-7.62,46-11.36,69-.61,3.78-1.92,5.15-6.08,4.89-26.61-1.69-53.24-3-79.86-4.53-6.78-.38-13.56-.86-20.43-1.3a27.22,27.22,0,0,1-.4-2.82c-.46-15.12-4.71-29.22-11.62-42.54-8.09-15.59-19.68-27.19-37.35-31.49-5-1.23-10-2.66-15-3.65-8.16-1.61-8.16-1.49-8.87-9.74-2.37-27.39-4.86-54.77-7-82.18-.33-4.23-1.87-5.11-5.8-5.06-36.33.47-72.66.74-109,1.09-1.46,0-2.92.18-4.32.28-1.2,4.31,1.21,4.62,4.22,4.77q27.47,1.4,54.92,3c3.26.18,6.52.52,9.78.79,0,.25,0,.5,0,.75l-67.13,3.54c.17,2.19.17,3.52.39,4.81,3.18,19.06,6.5,38.09,9.5,57.18.59,3.77,2,4.91,5.72,5,8.87.18,17.73.81,26.59,1.26,0,.35,0,.7,0,1l-30.48,1.75c.18,1.84.26,3.3.46,4.74,1,7.39,1,7.38,8.47,7.38h78.61c-7.3,3.35-13.28,5.78-19,8.78-5.47,2.89-10.63,6.38-15.92,9.6l.66,1.24c16.64-8,33.66-15.22,52.55-13.56s35.06,10.23,48.25,24.07c-1.79-.34-3.28-1.32-4.92-1.88-8.62-3-17.1-7.44-26-8.4-29.47-3.19-57.66,2.77-84.52,15.07-3.5,1.6-6.58,4.1-9.86,6.19.14.41.27.82.41,1.22l40.22,4.14c-15.08,1.95-30,2.9-45,4.09-1.91.15-4.74,1.15-5.36,2.54-1.39,3.13-3,7.3-2,10,.94,2.45,5.22,4.65,8.29,5.07,9.72,1.34,19.56,1.79,29.36,2.62a6.12,6.12,0,0,1,1.52.62l-1.06,3.43c-3.32,0-6.31.17-9.27,0-3.12-.23-4.37,1.26-4.17,4.06A94.84,94.84,0,0,0,94.81,370c2,9.42,7.38,16.95,15,23.94l-43.66,8.11.12.93h9c18.17,0,36.33.07,54.5,0,6,0,12.12.27,17.87-1,13.79-3.08,23.48-11.57,29.65-24.39-8.92-3.62-9.71-3.36-15.09,2.84-8.65,10-19.56,13.46-32.41,10.65-6.53-1.43-11.5-4.74-14-8.77,18.39,11.66,42.09,7.56,45.47-8.25l-5,4.12c-.14-2.22-.23-3.51-.31-4.88l-5.92-1.73a40.92,40.92,0,0,1,8.35-.05c28,2,56,6.6,84.24,2.88,2.12-.28,4.55,1.39,6.75,2.36,4.3,1.9,8.49,5.52,12.82,5.66,25.81.86,51.65,1,77.48,1.16a10.91,10.91,0,0,0,6.21-2.29c3.46-2.66,6.51-5.84,9.33-8.43L367,392.49l-62.87,9.33c0,.34.07.68.11,1q39.48,0,78.94,0a42.57,42.57,0,0,1,7,.38c19.89,3.32,38.13-5.6,47.22-23.2,8.77-17,5.45-37-8.42-51.12C428,327.94,427.1,326.87,426.07,325.69ZM112,368.32c7.91-4.66,8,3.81,12,5.94C118.31,379.67,115.41,378.14,112,368.32Zm11.75-16.61c-4.46-.4-8,.17-7.67,6-1.31-.42-2.53-.44-3.1-1.07a30.22,30.22,0,0,1-2.9-4.27c1.41-.91,2.86-2.64,4.25-2.6a123.08,123.08,0,0,1,18.27,2C129.65,351.76,126.68,352,123.75,351.71Zm21.82,32.93c-5.28.54-10.6.75-16.62,1.11,1.52-4.87,3.28-6.26,7.08-5.37,2.67.63,5.61-.05,8.4.17,1.17.1,2.28,1,3.42,1.56C147.09,383,146.41,384.55,145.57,384.64ZM194,362.06c-14.09-.7-28.17-1.43-42.26-2.09-6-.28-12.37-2.19-17,4.58-.23-.39-.46-.79-.7-1.18.44-2.68.88-5.36,1.41-8.63l58.59,6.51C194,361.52,194,361.79,194,362.06Zm22.52-.57c-.81-1.06-2.94-1.33-4.52-1.51-9.06-1.06-18.14-2-27.21-3a31.06,31.06,0,0,1-3.13-.65c0-.35.09-.7.14-1.05,4.65.29,9.31.53,14,.88,7.28.56,14.54,1.43,21.83,1.7,5.23.19,8.93,2.78,13.37,6.72C225.26,364.4,220.34,366.42,216.51,361.49Zm206.28,10-9.76-5c-.27-4.06-.64-7.48-.65-10.91a4.32,4.32,0,0,1,1.51-3.15c3.12-2.15,6.44-4,9.68-5.95C427.81,353.68,427.56,363.72,422.79,371.48Zm-29.73-32-.91.38L382.52,319l1.91-.83Zm-1.67-9.83c9.69-1.85,17.85-.33,25.09,4.8l-8.79,12.45C396.53,346.48,395.2,337.43,391.39,329.64Zm-2.06,36.6c4.65-4.8,6.55-1.54,8.61,1-.19.49-.39,1-.58,1.49Zm3.38,10.27-5.28,7.3c-8.5-4-13.82-10.12-16.14-19.39,2-.4,3.64-.64,5.22-1.05,3.71-1,6.15-1,7.88,3.73C385.68,370.6,389.6,373.14,392.71,376.51Zm16.91-5.09c2.1,2.4,4.37,5,7,7.93-6,5.37-12.67,7.07-20.2,6.57C396.8,377.37,403,374.47,409.62,371.42Zm-35.24-66.34c.15-.71,1.34-1.5,2.19-1.73,16.55-4.47,31.53-1,45.17,9.09A6.52,6.52,0,0,1,423,314a16.22,16.22,0,0,1,.88,1.73c-6.41-1.74-12.23-3.94-18.23-4.75-5.84-.8-11.88-.18-18.26-.18-1.26-2.45-2.6-5.05-3.88-7.52-5.6-.29-8.47,2-9.05,7.55a35.55,35.55,0,0,1-3.38,11.91C372.18,316.81,373.17,310.93,374.38,305.08Zm29.89,87A31.76,31.76,0,0,1,369,373a31.25,31.25,0,0,1,11.2-38.13c1.86,3.52,3.43,7.15,5.57,10.39,3.24,4.92-2.52,6.86-2.75,11.2l-11.25-4.67c-6.06,10,.85,27.95,13.69,34.81,14.24,7.61,34.7,3.64,43-17C428.14,379.15,416.59,389.88,404.27,392.1Z"/><path class="cls-1" d="M183.1,244.22c4.08,1.21,8,2.88,12,4.35-3.43,1.26-6.62,1.44-9.64,2.26-1.54.41-3.63,1.74-4,3-.92,3.46-2.14,7.48-1.19,10.67,1.3,4.36,1.45,7.84-2.28,11.69,11.17,3.78,21.7,7.28,32.18,10.92a16.14,16.14,0,0,1,5.58,2.94c11.25,10.31,19.82,22.56,24.52,37.11,3.11,9.6,5.2,19.53,7.86,29.77h11.72c-4.95-14.68-4.35-23.24,2.38-37,2.77-5.69,5.16-11.57,8.16-17.13,3.82-7.05,5.81-14.05,1.93-21.72-.39-.77-.16-1.86-.24-3.1H285c-6.4,19.08-12.66,37.74-19,56.61L280,338.2c0,.59-.09,1.17-.13,1.76a82.89,82.89,0,0,1-8.78,0c-9.1-1-9.46-.74-10,8.65a9.32,9.32,0,0,1-.06,1.5c-1.06,4.78,1.45,6.71,5.74,7.06,8.8.72,17.6,1.86,26.4,1.85,6.75,0,13.52-1.34,20.23-2.41,1.33-.22,2.43-1.9,3.63-2.9-1.14-1-2.11-2.46-3.45-3-6.3-2.63-12.75-4.9-19.05-7.52-7-2.9-7.14-3.87-4-10.64,9.2-19.77,18.54-39.49,27.22-59.49,6.24-14.37,5.21-17.17-10.31-20.94-21.32-5.17-43-8.75-64.55-13a9.53,9.53,0,0,1-2.51-.61c.06-4-3.09-2.88-5.05-3.06-6.11-.59-12.26-.87-18.39-1.27a50.67,50.67,0,0,1,13.91-2.37c7.66-.09,13.72-1.6,14.27-10.94.05-.89,2.45-2.44,3.64-2.34,11.76,1,23.5,2.23,35.22,3.57,4.8.56,9.19.11,13.38-2.58,1.16-.74,3.12-.58,4.64-.35,3.08.49,5.76-.34,6.19-3.4.25-1.8-1.25-5.31-2.42-5.52-2.05-.38-4.61.91-6.69,2-2.61,1.38-4.73,4-7.45,4.8-13,4-26.07,2.24-39-.21-10.23-1.94-20.28-4.77-31-7.35,3.34-10.13,2.79-20.59,8.28-29.62l19,7.09c-3,6.18-5.74,11.79-8.59,17.66,2.33.55,4.1,1,5.88,1.38,10.62,2.11,21.3,3.92,31.83,6.4a18.25,18.25,0,0,0,14.56-2.12c-13.17-2.27-25.58-4.33-38-6.59-3-.54-5.86-1.72-9.45-2.8,1.65-2.81,2.76-4.7,3.88-6.58l.8.35c-.18,1.6-.35,3.19-.61,5.56,14.43,1.58,28.78,3.23,43.15,4.67a36.92,36.92,0,0,0,10.45-.15c10.53-2,21-4.48,31.45-6.77l7.14-2.19c-2.42-4.05-6.24-1.67-9.31-1.7-4.43,0-7.66-.69-9.22-5.51-1-3.12-2.88-6-4.49-8.9-2.36-4.28-3.81-8.44-3.18-13.7.44-3.64-1.7-7.6-2.84-12-7.37,6.36-12.06,25.74-8,31.37l8.56-9c2.93,5.56,5.59,10.59,8.55,16.22-6.07,1.7-11.52,4.93-16.46,4.29A263.53,263.53,0,0,1,268.54,189c-7.68-2.14-8.64-6.25-5.72-13.78,2.76-7.13,5.22-14.39,7.61-21.66,3.66-11.12,5.43-12.25,16.63-9.83,6.46,1.39,6.54,1.25,8.26-5.53.94-3.74,0-8.68,5.72-9.48-.06-1.36-.13-2.35-.16-3.35-.13-4.17-2.5-8.54,2.21-12.16,1.18-.91.48-4.26.65-6.5L293,116.05l5.39,9.38c-2.95,3.68-10.37,2.32-8.12,10.85-2.18-2.93-3.68-4.52-4.66-6.38a15.62,15.62,0,0,1-2.06-6.09c-.21-4.09.71-8.28.2-12.3-.82-6.36-.77-6.84,5.66-6.94,3,0,6,.2,9,.23,3.76,0,7.52,0,11.22,0,.63-12.11-8.82-23.83-21.53-27.64-10.72-3.21-24.35.86-29,9l30.09,4.63c-.05.45-.1.9-.14,1.35-10.16,0-20.33.23-30.48-.11-4.41-.15-6.31,1.69-7.39,5.57-2.8,10.09-2,19.68,3.62,28.22-3.33,7.15-8.27,11.06-15.88,12.65-5.91,1.24-11.36,4.64-17,7.08l.48,1.73,13.68.84c-2.35.9-4.66,1.75-6.91,1.6-11.91-.76-18.81,6.18-24.87,15.15-14.61,21.62-21.17,46.11-26.13,71.24C177.21,240.58,178.84,243,183.1,244.22ZM259.43,129c6.31,2.61,12.43,6.65,19.54,1.52.87,2.64,1.62,4.94,2.39,7.27-3.72,4.44-5,.3-7.21-2.46-6.33,9.33-14.44,11.81-25.43,6.15C252.41,137.19,255.84,133.21,259.43,129Zm2.37,146.1c-7.71,1.69-15.36,3.74-23.14,4.95a188.36,188.36,0,0,1-26.23,2.68c-7,.11-13.67-2.19-18-9C216.83,280.61,239.23,275.12,261.8,275.12Z"/><path class="cls-1" d="M315.05,241.75c5.87,10.25,12.12,20.28,18.11,30.46,1.24,2.11,2.84,4.45,2.91,6.73.26,7.93.77,16-.38,23.79-1.76,11.82-5.13,23.39-7.24,35.17-1.85,10.39-3.79,20.28-16.31,22.59,7,0,14-.15,20.93.06,3.74.11,5.07-1.34,5.71-5,3.46-19.83,7.28-39.59,10.77-59.41.46-2.64.47-5.84-.61-8.17-7.56-16.27-15.44-32.38-23.26-48.52-2.24-4.61-6.13-8.73-3.26-14.84C312.54,228.32,310.35,233.56,315.05,241.75Z"/><path class="cls-1" d="M156.3,179.83c4.29-.06,5.94.95,6.27,5.64,2,28.54,4.38,57.06,6.66,85.58.1,1.24.44,2.47.89,4.9,3.81-5.5,8.74-8.46,8-15.65-2.7-26.65-4.82-53.35-7-80-.29-3.5-1.56-4.44-4.92-4.32-16.3.58-32.6.94-48.9,1.41-1.3,0-2.6.3-3.9.45l0,2.12C127.7,179.92,142,180.06,156.3,179.83Z"/><path class="cls-1" d="M325.74,202.08l11.56,8.49-.79,1.22c-6.59-3.87-12.92-8.5-21.42-7.81,1.15,4.67,2.16,8.8,3.22,13.09l-16.06,4.39c3.12,3.14,5.93,4,9.53,2.86a49.35,49.35,0,0,1,25.64-.94c3,.67,6.07,1,8.43,1.4.72-10.9,1.4-21.3,2.1-31.87l-6.47,2.8-7.14,2.19Z"/><path class="cls-1" d="M94.06,297.8c9.88-5.55,19.23-12,28.11-17.76-4.77.27-10.89.89-17,.88-6.83,0-13,1.19-18.29,6-2.16,1.95-4.19,8-2.1,9.16C87.48,297.52,91.9,299,94.06,297.8Z"/><path class="cls-1" d="M352.66,224.7c7.55-4.37,7.46-11.57,7.14-18.56-.36-8-2.79-11.78-7.9-13C356.1,203.71,355.62,214.14,352.66,224.7Z"/></svg>