<svg id="Layer_1" data-name="Layer 1" xmlns="http://www.w3.org/2000/svg" viewBox="0 0 480 480"><defs><style>.cls-1{fill:none;}.cls-2{fill:#fff;}</style></defs><title>Artboard 22</title><path class="cls-1" d="M354.47,281.92c-11,.21-22,.07-33,.07-11.22,0-22.45.13-33.68-.06-4.34-.07-6.07,1.38-6,5.89q.24,30.75,0,61.5c0,4.54,1.76,5.89,6.06,5.87q33.31-.19,66.63,0c4.63,0,6.52-1.42,6.48-6.27q-.27-30.39,0-60.77C361,283.27,359.07,281.83,354.47,281.92Z"/><path class="cls-2" d="M369.13,212q-62.26-38.64-124.28-77.67c-3.91-2.46-6.94-2-10.7.29-16.47,10-33.32,19.48-49.61,29.81q-39.9,25.31-79.15,51.62c-2.73,1.82-5.34,6.17-5.36,9.36-.32,56.45-.19,112.92-.29,169.38,0,6.62,2.92,9.24,9.35,9.11,9.53-.2,19.07,0,28.6-.05,10.63,0,11.2-.55,11.21-11.19,0-34,.12-67.94-.07-101.92,0-6.4,1.65-9,8.7-8.9q38.49.63,77,0c7.31-.12,9,2.51,9,9.32-.26,34.21-.13,68.43-.1,102.65,0,9.31.72,10,10,10q56.82,0,113.65,0c9.38,0,10.16-.76,10.17-9.94q0-42.17,0-84.32c0-27.38-.29-54.76.18-82.12C377.59,220.09,375.13,215.69,369.13,212Zm-8.15,137c0,4.85-1.85,6.3-6.48,6.27q-33.31-.24-66.63,0c-4.3,0-6.1-1.33-6.06-5.87q.24-30.75,0-61.5c0-4.51,1.69-6,6-5.89,11.23.19,22.46.06,33.68.06,11,0,22,.14,33-.07,4.6-.09,6.55,1.35,6.51,6.24Q360.71,318.55,361,348.93Z"/><path class="cls-2" d="M414.77,184.7c-9.73-8.62-21.36-15.21-32.57-22-4.49-2.72-6.65-5.26-6.57-10.73.32-21.49.06-43,.18-64.5,0-5.82-1.88-9.57-8.23-9.58q-35.93,0-71.84,0c-5.38,0-8.13,2.71-8.15,8.11,0,4.36,0,8.71,0,15.1-4.09-1.92-6.77-2.87-9.13-4.34-9.13-5.65-18.27-11.31-27.2-17.28-6.4-4.28-12.83-4.32-19.33-.91-7.13,3.74-14.22,7.61-21.07,11.84Q145.15,131.06,79.62,172A91.7,91.7,0,0,0,63.3,185.44c-4.8,4.87-4.59,15.36-.55,20.45s11.22,5.78,18.59,1.76c4.08-2.22,8.18-4.41,12.12-6.84q69.89-43,139.65-86.17c4.74-2.94,8.27-3.33,13.18-.12,19,12.43,38.23,24.53,57.55,36.47q44.87,27.72,90,54.95c3.73,2.24,8.82,4.25,12.82,3.6C420.26,207.33,425,193.77,414.77,184.7Z"/></svg>