<svg id="Layer_1" data-name="Layer 1" xmlns="http://www.w3.org/2000/svg" viewBox="0 0 1600 1065"><defs><style>.cls-1{fill:#fff;}</style></defs><title>loading</title><path class="cls-1" d="M466.06,483.18h11.49v68.95H512v11.5h-46Z"/><path class="cls-1" d="M535.16,552.13H523.67V517.66h11.49Zm46,0H569.64V517.66H535.16v-11.5h34.48v11.5h11.49Zm-11.49,0v11.5H535.16v-11.5Z"/><path class="cls-1" d="M592.62,552.13V540.64h11.5v11.49Zm46-34.47h11.5v46h-46v-11.5h34.47V540.64H604.12V529.15h34.47V517.66H604.12v-11.5h34.47Z"/><path class="cls-1" d="M661.73,552.13V517.66h11.49v34.47Zm46,0V517.66H673.22v-11.5H707.7v-23h11.49v80.45h-46v-11.5Z"/><path class="cls-1" d="M742,494.67h-11.5V483.18H742Zm0,69h-11.5V506.16H742Z"/><path class="cls-1" d="M811,563.63H799.49v-46H765v46H753.52V506.16h46v11.5H811Z"/><path class="cls-1" d="M834.11,517.66v34.47H822.62V517.66Zm34.48,57.46v11.49h-46V575.12Zm0-23V517.66H834.11v-11.5h46v69H868.59V563.63H834.11v-11.5Z"/><path class="cls-1" d="M960.82,540.64v23h-23v-23Z"/><path class="cls-1" d="M1041.56,540.64v23h-23v-23Z"/><path class="cls-1" d="M1122.3,540.64v23h-23v-23Z"/></svg>