<svg id="Layer_1" data-name="Layer 1" xmlns="http://www.w3.org/2000/svg" viewBox="0 0 480 150"><defs><style>.cls-1{fill:#fff;}</style></defs><title>merek-sony</title><rect class="cls-1" x="-1959.5" y="-236.5" width="3102" height="1623"/><path d="M1142-236V1386H-1959V-236H1142m1-1H-1960V1387H1143V-237Z"/><path id="path4258" d="M171,117.25c-17.38,0-33.53-5.21-44.3-14.88a36.35,36.35,0,0,1-12-27.45,36.87,36.87,0,0,1,12-27.34c10-9.12,27.67-14.83,44.3-14.83,18.41,0,33.14,4.63,44.4,14.85a36.47,36.47,0,0,1,11.89,27.33,38,38,0,0,1-11.89,27.44c-10.48,9.73-27,14.88-44.4,14.88V106.11c9.23,0,17.79-3.19,23.77-9.14s8.71-13.17,8.71-22c0-8.5-3-16.45-8.71-22.09-5.9-5.81-14.66-9.08-23.77-9.08S153.1,47,147.2,52.83c-5.69,5.64-8.68,13.61-8.68,22.09a30.85,30.85,0,0,0,8.68,22c5.9,5.88,14.65,9.14,23.8,9.14v11.14ZM43.92,32.79a72.91,72.91,0,0,0-28.85,5.75C6.78,42.23,0,48.21,0,58.13a20.36,20.36,0,0,0,5.52,14c2.41,2.22,6.3,6,16.45,8.22,4.54,1,14.25,2.52,23.91,3.53s19,2,22.89,3c3,.78,8.18,1.84,8.18,7.6s-5.4,7.48-6.34,7.86-7.43,3.35-19.09,3.35a80.88,80.88,0,0,1-22.73-3.94c-4.35-1.55-8.91-3.6-13.17-8.79a15.22,15.22,0,0,1-2.72-8.35H2.34v29.58H14.07v-4a1.68,1.68,0,0,1,2.54-1.44,91.93,91.93,0,0,0,17.16,5.55c6.17,1.29,10.14,2.21,17.81,2.21a76.25,76.25,0,0,0,23.87-3.36,41.78,41.78,0,0,0,14.18-7,19.43,19.43,0,0,0,7.59-15.57,21.77,21.77,0,0,0-6.14-15.3,26.64,26.64,0,0,0-7.6-5.17,57.06,57.06,0,0,0-9.33-3.26c-6.05-1.48-19.72-3.31-26.26-4-6.85-.71-18.75-1.7-23.5-3.17C23,59.2,20,57.8,20,54.39c0-2.43,1.34-4.48,4-6.14C28.23,45.61,36.73,44,45.6,44a62.56,62.56,0,0,1,25,4.88,27.42,27.42,0,0,1,6,3.55,17.92,17.92,0,0,1,5.86,9.82h9.48V36.48H81.33v3c0,1-1,2.22-2.89,1.18-4.73-2.48-18.12-7.84-34.53-7.86m231.85,4.67L327.36,84l-.53-31.36c-.05-4.11-.81-5.83-5.25-5.83h-9.71V37.47H356v9.38h-9.47c-4.53,0-4.82,1.45-4.87,5.83l.8,59.92H327.34l-59.44-53,0,37.65c.05,4.09.24,6,4.46,6H283v9.37H239.64v-9.37h10.13c3.78,0,3.63-3.61,3.63-6.24V53c0-2.84-.4-6.18-6.34-6.18h-8.22v-9.4ZM406.42,103.2A20.21,20.21,0,0,0,409,103a3.24,3.24,0,0,0,2-1.81,10,10,0,0,0,.2-2V84.38c0-.36,0-.51-.63-1.31S383.61,52.33,382.4,51c-1.5-1.63-4.13-4.16-8.13-4.16H365.1V37.47h51.75v9.37h-6.24c-1.44,0-2.4,1.37-1.17,2.89l17.58,21c.16.23.3.28.52.08s17.85-20.93,18-21.09A1.81,1.81,0,0,0,444,46.85h-6.4V37.47H480v9.38h-9.47c-3.44,0-4.84.64-7.43,3.56L434.55,83a2,2,0,0,0-.35,1.39V99.2a10.91,10.91,0,0,0,.2,2,3.25,3.25,0,0,0,2,1.8,19.64,19.64,0,0,0,2.58.16h9.7v9.38H397.24v-9.38Z"/></svg>