<svg id="Layer_1" data-name="Layer 1" xmlns="http://www.w3.org/2000/svg" viewBox="0 0 480 150"><title>logo-nintendo-switch</title><path d="M22.75,22.26A27.53,27.53,0,0,0,.9,42.34c-1,3.73-1,5.92-.93,34.85C0,103.77.06,104.38.5,106.44,3,117.49,10.81,125.37,22,128c1.45.33,3.31.39,15.25.46,12.36.09,13.64.07,14-.26s.35-4.6.35-52.89c0-35.79-.07-52.66-.22-53s-.6-.42-13.53-.4C27.3,22,24.14,22,22.75,22.26Zm20,53v44.71l-9-.11c-8.28-.09-9.16-.13-10.81-.55A18.69,18.69,0,0,1,9.07,104.85c-.49-2.23-.49-57.14,0-59.33A19,19,0,0,1,20.48,31.86c2.91-1.17,4.26-1.3,13.7-1.32l8.54,0Z"/><path d="M24.65,44A11.67,11.67,0,0,0,20,46.32a9.78,9.78,0,0,0-3.29,8.21,7,7,0,0,0,.91,3.62,10,10,0,0,0,4.74,4.76,6.88,6.88,0,0,0,3.78.89,8.08,8.08,0,0,0,3.53-.4,10,10,0,0,0,6.86-11A10.13,10.13,0,0,0,24.65,44Z"/><path d="M62.29,22c-.08.06-.15,22.53-.15,49.94,0,45.21,0,49.79.34,49.92.56.21,16.64.12,18.63-.08A25.89,25.89,0,0,0,101,108.12a29.61,29.61,0,0,0,1.56-3.63c1.3-3.89,1.26-2.86,1.26-32.65,0-23.77,0-27.32-.33-28.83a25.75,25.75,0,0,0-21.1-20.82c-1.45-.25-3.69-.31-10.91-.31C66.5,21.88,62.35,21.94,62.29,22ZM84.43,67.18a10.17,10.17,0,0,1,7,6.47,10.81,10.81,0,0,1,0,6.59,10,10,0,0,1-19.15-.5,11.79,11.79,0,0,1,.08-5.84A10.07,10.07,0,0,1,84.43,67.18Z"/><path d="M460.29,22.1a15.42,15.42,0,0,0-10.58,17.32,14.72,14.72,0,0,0,8,11.15c6,3,12.35,2.2,17.13-2.11A14.16,14.16,0,0,0,480,37a14.43,14.43,0,0,0-4.35-11C471.87,22.24,465.07,20.52,460.29,22.1Zm8.47,7a8.21,8.21,0,0,1,4.68,7.13c.29,4.25-1.53,7.32-5.31,8.9-6.41,2.67-13.68-3.5-11.86-10.15.76-3,2.05-4.64,4.45-5.84A9.12,9.12,0,0,1,468.76,29.09Z"/><path d="M139.56,37V51.62l3-.14,3-.14.24-9.24.24-9.23L153,42.2l6.94,9.37,2.87-.09,2.87-.14V22.63l-3-.15-3-.14v18.9l-7-9.43-7.08-9.42h-6Z"/><path d="M187.41,37V51.57h6.22V22.39h-6.22Z"/><path d="M215.4,23c-.14.33-.19,6.84-.14,14.45l.14,13.88,3,.14,3,.14V32.24l7.18,9.67,7.18,9.66h5.74V22.39h-6.22l-.1,9.18L235,40.76l-6.89-9.19-6.84-9.18h-2.83C216.6,22.39,215.54,22.58,215.4,23Z"/><path d="M261.91,22.72a8.7,8.7,0,0,0-.34,3.11v2.78h9.57v23h6.22v-23h9.09V22.39h-12.1C267.65,22.39,262.05,22.53,261.91,22.72Z"/><path d="M307.51,37V51.57H330V45.83H313.25v-6.7h15.31V33.87H313.25V28.13l8.28-.1,8.23-.14.14-2.78.14-2.72H307.51Z"/><path d="M353.68,23c-.14.33-.19,6.84-.14,14.45l.14,13.88,3,.14,3,.14V32.24l7.18,9.67L374,51.57h5.74V22.39h-6.22l-.1,9.18-.14,9.19-6.89-9.19-6.84-9.18h-2.83C354.88,22.39,353.82,22.58,353.68,23Z"/><path d="M404.16,36.93V51.57h6.36c7.37,0,10.87-.71,14-2.91,9.33-6.42,7.9-20.15-2.58-25-2-.91-3.3-1.05-10-1.2l-7.8-.19Zm15.65-7.41a8.43,8.43,0,0,1,3.73,11.24c-1.53,3.16-4.64,4.59-10.1,4.59H409.9V28.61h4A14.24,14.24,0,0,1,419.81,29.52Z"/><path d="M389.71,64.54a29.07,29.07,0,0,0-16.65,49.24,25.9,25.9,0,0,0,13.21,7.65,28.85,28.85,0,0,0,25-5c2.83-2.11,6.51-6.22,6.22-6.94-.09-.19-2-2-4.4-4l-4.21-3.68-1.29,1.67a17.49,17.49,0,0,1-25.89,1.72,20.86,20.86,0,0,1-3.2-4.4c-1.2-2.29-1.34-3-1.34-7.32,0-4.11.14-5.12,1.19-7.18,3.54-7.32,12.3-11.29,19.91-9.09a18.6,18.6,0,0,1,9,5.65l1.63,2L411,83.06c1.14-.91,3.15-2.68,4.45-3.83l2.39-2.15-1.87-2.3A29.43,29.43,0,0,0,389.71,64.54Z"/><path d="M153.05,66.41c-11.38,3-17.27,10.62-14.73,19.23,1.82,6.37,7.84,9.48,23.87,12.35,10.77,1.91,13.93,3.49,13.93,6.89,0,2.34-1.39,4.06-4.41,5.45-2.58,1.2-3.15,1.29-9.66,1.29-7.7,0-10.72-.62-16.41-3.2a14,14,0,0,0-3.4-1.29c-.57.71-5.12,9.18-5,9.28.48.53,8.14,3.3,11.3,4.16,5.26,1.39,16.5,1.72,22.25.67,10.71-2,16-6.94,16.5-15.21.39-6.85-1.53-10.39-7.41-13.45-4.21-2.2-7.85-3.25-17.13-5.12-8.09-1.58-10.39-2.34-12.06-3.92a3.81,3.81,0,0,1,0-5.41c3.44-3.44,15.79-3.59,25.36-.24,1.58.53,3,.81,3.2.62a90.25,90.25,0,0,0,3.78-8.94c0-.44-7.32-2.59-11.43-3.35C166.12,65.16,157.5,65.26,153.05,66.41Z"/><path d="M193.82,66.74c.14.48,3.49,12.4,7.46,26.46s7.33,26,7.47,26.41c.24.77,1,.87,6.89.87h6.65l.53-1.82c4.73-17.13,9.52-33.21,9.76-32.63.14.38,2.39,8.23,5,17.46l4.69,16.75,6.7.14,6.7.14,7.61-26.7c4.16-14.68,7.65-27,7.8-27.32s-1.2-.57-5.84-.57h-6l-.67,2.25c-.38,1.29-2.68,9.9-5.12,19.14s-4.59,16.89-4.79,16.89-2.39-7.28-5-16.18S238.56,70.57,238,68.9l-.91-3-4.88.14-4.88.15-5.6,19.14c-3.06,10.52-5.59,19.23-5.64,19.38s-2.2-7.61-4.74-17.23-5-18.37-5.26-19.52l-.58-2h-6C194.06,65.93,193.58,66,193.82,66.74Z"/><path d="M284.54,93.2v27.28H297l-.09-27.18-.15-27.13L290.67,66l-6.13-.14Z"/><path d="M309.9,71.91v6h17.23v42.59h12V77.89l8.51-.09,8.47-.15V66.17L333,66l-23.11-.09Z"/><path d="M430,93.2v27.28h11.48V98.94h25.36v21.54h11.49l-.1-27.18-.14-27.13-5.6-.15-5.65-.14V87.46H441.48V65.93H430Z"/></svg>