<svg id="Layer_1" data-name="Layer 1" xmlns="http://www.w3.org/2000/svg" viewBox="0 0 480 150"><defs><style>.cls-1{fill:#929497;}.cls-2{fill:#221f1f;}.cls-3{fill:#221e1f;}</style></defs><title>logo-nintendo-ds</title><g id="layer1"><g id="g101650"><path id="path100608" class="cls-1" d="M294.58,101.45a1.33,1.33,0,0,1-1.29,1.33H268.66a1.34,1.34,0,0,1-1.3-1.33V83.65a1.28,1.28,0,0,1,1.3-1.26h24.63a1.27,1.27,0,0,1,1.29,1.26ZM293.51,77H268.43a6.6,6.6,0,0,0-6.59,6.61v17.87a6.65,6.65,0,0,0,6.59,6.61h25.08a6.65,6.65,0,0,0,6.59-6.61V83.65A6.6,6.6,0,0,0,293.51,77"/><path id="path100618" class="cls-2" d="M5.84,50.31v23H.09V42.22H5l23.3,22.65V42.22H34V73.31h-4.5l-23.65-23"/><path id="path100622" class="cls-3" d="M63.53,50.31v23H57.77V42.22h4.91L86,64.87V42.22h5.68V73.31H87.18l-23.65-23"/><path id="path100626" class="cls-3" d="M183.09,50.31v23h-5.76V42.22h4.91l23.31,22.65V42.22h5.68V73.31h-4.49l-23.65-23"/><path id="path100630" class="cls-3" d="M47.69,42.22h1.06V73.31H43V42.22h4.69"/><path id="path100634" class="cls-3" d="M130.86,42.22h1v5.35H118V73.31h-6V47.57H98.19V42.22h32.67"/><path id="path100638" class="cls-3" d="M167.72,42.22h1.07v5.35H144.13v7h19.08v5.35H144.13V68h24.66v5.34H138.43V42.22h29.29"/><path id="path100642" class="cls-3" d="M243.22,68H225.55V47.57h17.67c5.53,0,7.49,5.48,7.49,10.2S248.75,68,243.22,68Zm9.44-21.18a11.45,11.45,0,0,0-9.6-4.57H220V73.31h23.06a11.64,11.64,0,0,0,9.6-4.57c2.11-2.74,3.23-6.54,3.23-11a17.87,17.87,0,0,0-3.23-11"/><path id="path100646" class="cls-3" d="M294.58,66.7A1.33,1.33,0,0,1,293.29,68H268.66a1.33,1.33,0,0,1-1.3-1.27V48.83a1.28,1.28,0,0,1,1.3-1.26h24.63a1.27,1.27,0,0,1,1.29,1.26Zm-1.07-24.48H268.43a6.61,6.61,0,0,0-6.59,6.61V66.7a6.6,6.6,0,0,0,6.59,6.61h25.08a6.6,6.6,0,0,0,6.59-6.61V48.83a6.61,6.61,0,0,0-6.59-6.61"/><path id="path100656" class="cls-3" d="M398,95c6,2.39,18.56,4.29,28.4,4.29,10.76,0,15.21-3.66,15.21-8.3,0-4.22-4.13-6.61-16-11C409.67,74.16,398,69.51,398,59c0-10.76,14-17.16,35.4-17.16a99.91,99.91,0,0,1,22.71,2l.06,10.27c-7.16-1.34-13.51-3.66-23.36-3.66-10.57,0-15.07,3.38-15.07,6.82,0,5,6.93,7.39,19.1,11.75,16.93,6,26.35,10.69,26.35,20.89,0,10.55-11.8,18.15-38.4,18.15A150.1,150.1,0,0,1,398,106V95"/><path id="path100660" class="cls-3" d="M341.34,50.94H328.68v48h12.66C360.77,98.92,373,90.55,373,75S360.77,50.94,341.34,50.94Zm34,52.41c-6.26,2.81-18.11,4.64-28.46,4.64H307.29V42h39.57c10.35,0,22.2,1.83,28.47,4.64,15.25,6.9,20.21,17.94,20.21,28.35s-4.92,21.45-20.22,28.35"/><path id="path100678" class="cls-3" d="M467.17,98.14h-2.54v-.91h6.18v.91h-2.55v7.39h-1.09V98.14"/><path id="path100682" class="cls-3" d="M478.74,101.87c-.06-1.13-.13-2.53-.13-3.59h0c-.3,1-.63,2-1.06,3.17l-1.47,4.08h-.81l-1.37-4c-.39-1.2-.71-2.25-.95-3.24h0c0,1.06-.09,2.46-.16,3.66l-.22,3.59h-1l.58-8.3h1.37l1.43,4c.34,1.05.61,2,.84,2.81h0c.23-.84.52-1.76.89-2.81l1.49-4h1.37l.52,8.3h-1.06l-.2-3.66"/></g></g></svg>