<svg id="Layer_1" data-name="Layer 1" xmlns="http://www.w3.org/2000/svg" viewBox="0 0 480 150"><defs><style>.cls-1{fill:#737373;}.cls-2{fill:#f25022;}.cls-3{fill:#7fba00;}.cls-4{fill:#00a4ef;}.cls-5{fill:#ffb900;}</style></defs><title>logo-microsoft</title><path class="cls-1" d="M169.46,82.79,166.6,90.9h-.24a58,58,0,0,0-2.78-8L148.24,44.4h-15v61.44h9.94V67.93c0-2.39,0-5.09-.08-8.43-.08-1.67-.24-2.94-.32-3.89H143a37.16,37.16,0,0,0,1.43,5.24l18.44,44.83h7l18.28-45.23c.39-1,.79-3.1,1.19-4.84h.24c-.24,4.53-.4,8.58-.48,11V105.6h10.57V44.24H185.2Zm40.22-21.22H220v44H209.68ZM214.92,43a6.15,6.15,0,0,0-4.37,1.75,5.85,5.85,0,0,0,0,8.5,6.13,6.13,0,0,0,4.37,1.67,6.34,6.34,0,0,0,4.37-1.67A5.55,5.55,0,0,0,221.12,49a5.85,5.85,0,0,0-1.83-4.29A5.76,5.76,0,0,0,214.92,43m41.73,18.2a28.62,28.62,0,0,0-5.8-.64,25,25,0,0,0-12.56,3.1A20.77,20.77,0,0,0,230,72.14a27.11,27.11,0,0,0-2.86,12.72A23.56,23.56,0,0,0,230,96.22a19,19,0,0,0,7.78,7.87,22.93,22.93,0,0,0,11.37,2.78,25,25,0,0,0,12.48-2.94l.08-.08V94.31l-.4.32a17.68,17.68,0,0,1-5,2.63,15.38,15.38,0,0,1-4.92.95c-4.14,0-7.4-1.19-9.7-3.82s-3.58-6-3.58-10.41c0-4.53,1.19-8.11,3.66-10.73a12.76,12.76,0,0,1,9.7-4,16.89,16.89,0,0,1,9.85,3.34l.4.31V62.84l-.08-.08a23.83,23.83,0,0,0-4.93-1.59m34.1-.32a10.89,10.89,0,0,0-7,2.47,14.74,14.74,0,0,0-4,6h-.08V61.57H269.37v44H279.7V83.11c0-3.82.8-7,2.55-9.3a7.94,7.94,0,0,1,6.67-3.58,25.13,25.13,0,0,1,3.1.4,8.27,8.27,0,0,1,2.47,1l.39.32V61.65l-.24-.08a7.77,7.77,0,0,0-3.89-.72m28.14-.24c-7.24,0-13,2.15-17.09,6.36s-6.12,10-6.12,17.33c0,6.84,2.06,12.4,6,16.45s9.38,6,16.13,6c7.08,0,12.72-2.14,16.77-6.43s6.13-10,6.13-17.09-1.91-12.56-5.81-16.62c-3.73-4.05-9.22-6-16.05-6m8.26,33.86c-1.9,2.47-4.92,3.66-8.66,3.66s-6.76-1.19-8.9-3.82c-2.15-2.46-3.18-6-3.18-10.57,0-4.69,1.11-8.26,3.18-10.81a10.92,10.92,0,0,1,8.82-3.81A10.55,10.55,0,0,1,327,72.77c2.07,2.47,3.18,6,3.18,10.73-.16,4.77-1,8.51-3,11M363.8,79.85c-3.26-1.35-5.33-2.39-6.28-3.26a4.51,4.51,0,0,1-1.2-3.34A3.71,3.71,0,0,1,358,70.07a7.72,7.72,0,0,1,4.53-1.19,20.9,20.9,0,0,1,5.33.79,13.82,13.82,0,0,1,4.61,2.15l.4.32v-9.7l-.24-.08A29.53,29.53,0,0,0,367.93,61a31.73,31.73,0,0,0-5.09-.48c-4.93,0-9,1.2-12.16,3.82a11.74,11.74,0,0,0-4.69,9.7,12.7,12.7,0,0,0,1,5.4,12.09,12.09,0,0,0,3.18,4.13,27.37,27.37,0,0,0,6.36,3.58c2.39,1,4.21,1.83,5.33,2.46a11,11,0,0,1,2.38,1.91,4.51,4.51,0,0,1,.64,2.47c0,2.94-2.23,4.37-6.76,4.37a17.73,17.73,0,0,1-5.72-1,21.66,21.66,0,0,1-5.8-2.94l-.4-.31v10.09l.24.08A30.83,30.83,0,0,0,352,106a35.19,35.19,0,0,0,6,.71c5.33,0,9.7-1.19,12.8-3.81a12.17,12.17,0,0,0,4.85-10,11.15,11.15,0,0,0-2.55-7.55,32.32,32.32,0,0,0-9.29-5.48m39.1-19.24c-7.23,0-13,2.15-17.09,6.36s-6.12,10-6.12,17.33c0,6.84,2.07,12.4,6,16.45s9.38,6,16.14,6c7.07,0,12.72-2.14,16.77-6.43s6.12-10,6.12-17.09-1.91-12.56-5.8-16.62c-3.74-4.05-9.22-6-16.06-6m8.19,33.86c-1.91,2.47-4.93,3.66-8.67,3.66s-6.75-1.19-8.9-3.82c-2.14-2.46-3.18-6-3.18-10.57,0-4.69,1.12-8.26,3.18-10.81a10.94,10.94,0,0,1,8.82-3.81,10.7,10.7,0,0,1,8.59,3.65c2.07,2.47,3.18,6,3.18,10.73s-1,8.51-3,11M480,70.07v-8.5H469.59v-13l-.32.08-9.86,2.94-.23.08v9.94H443.6V56a8.67,8.67,0,0,1,1.75-5.8,6.17,6.17,0,0,1,4.84-1.91,11.54,11.54,0,0,1,4.61,1l.4.24v-9L455,40.5a19.91,19.91,0,0,0-14.07,1.12,13.8,13.8,0,0,0-5.64,5.64,16.28,16.28,0,0,0-2.07,8.19v6.12H426V70h7.23V105.6H443.6V70.07h15.58V92.72c0,9.3,4.37,14,13.11,14a27,27,0,0,0,4.37-.47,14.33,14.33,0,0,0,3.26-1l.08-.08v-8.5l-.4.32a6.86,6.86,0,0,1-2.14,1,7.26,7.26,0,0,1-2.07.32c-2.07,0-3.5-.48-4.53-1.67s-1.43-2.94-1.43-5.64V70.07Z"/><path class="cls-2" d="M0,23.73H48.72V72.46H0Z"/><path class="cls-3" d="M53.81,23.73h48.72V72.46H53.81Z"/><path class="cls-4" d="M0,77.54H48.72v48.73H0Z"/><path class="cls-5" d="M53.81,77.54h48.72v48.73H53.81Z"/></svg>