<svg id="Layer_1" data-name="Layer 1" xmlns="http://www.w3.org/2000/svg" viewBox="0 0 480 150"><defs><style>.cls-1{fill:#ed1c24;}.cls-2{fill:#fff;}</style></defs><title>logo-nintendo</title><path id="path452" class="cls-1" d="M62.81,134.12C25.18,134.1,0,107.45,0,75.1S25.24,15.78,62.76,15.88H417.29C454.79,15.78,480,42.77,480,75.1s-25.15,59-62.77,59Z"/><path id="path454" class="cls-2" d="M62.92,30.42c-29.8,0-48.07,20-48.07,44.6s18.18,44.7,48.07,44.6H417.1c29.92.1,48.09-20,48.09-44.6S446.9,30.47,417.1,30.42Z"/><path id="path456" class="cls-1" d="M47.64,47.06H65L89,85.88V47.06h17.2v55.67H89L64.88,63.91v38.82H47.64V47.06Z"/><path id="path458" class="cls-1" d="M199.73,52.79h16.76v7.49h9.06v5.51h-9.06l0,36.94H199.73V65.79h-9.1V60.3l9.1,0V52.79Z"/><path id="path460" class="cls-1" d="M115.76,65.71H132.5v37H115.76Z"/><path id="path462" class="cls-1" d="M115.72,47.05H132.5V58.43H115.72Z"/><path id="path464" class="cls-1" d="M409.1,63.2c-13.51,0-24.47,9.29-24.47,20.77s11,20.78,24.47,20.78S433.55,95.44,433.55,84,422.62,63.2,409.1,63.2m6.72,20.72s0,5.59,0,7.84c0,5.9-3.48,8.33-6.85,8.33s-6.86-2.43-6.86-8.33c0-2.25,0-8,0-8s0-5.47,0-7.71c0-5.88,3.52-8.29,6.84-8.29s6.85,2.41,6.85,8.29c0,2.24,0,6.39,0,7.87v0Z"/><path id="path466" class="cls-1" d="M362.78,84V77.42c0-5.73-4-7.18-6.56-7.18s-6.56,1.45-6.56,7.18V90.59c0,5.74,3.89,7.22,6.56,7.22s6.56-1.48,6.56-7.22V84Zm-.11-37h16.51v55.66H362.63s0-1.79,0-2.13a20.19,20.19,0,0,1-19.27,1.4,19.78,19.78,0,0,1-11.44-18.37c0-9.77,9.21-20.44,21.28-19.37a22.36,22.36,0,0,1,9.48,3.31V47.06Z"/><path id="path468" class="cls-1" d="M171.69,64c6.26-.18,18.95,3.91,18.86,18.56,0,2.62,0,20.15,0,20.15H173.92V78.41c0-3.23-3.09-6.81-7.65-6.81s-8,3.58-8,6.81c0,1.58,0,24.31,0,24.31H141.73l0-37h16.63s0,3,0,3.89A20.14,20.14,0,0,1,171.69,64"/><path id="path470" class="cls-1" d="M307.71,64c6.26-.18,19,3.91,18.87,18.56,0,2.62,0,20.15,0,20.15H310V78.41c0-3.23-3.09-6.81-7.66-6.81s-7.93,3.58-7.93,6.81c0,1.58,0,24.31,0,24.31H277.76v-37h16.61s0,3,0,3.89A20.12,20.12,0,0,1,307.71,64"/><path id="path472" class="cls-1" d="M255.05,89.78s0,.17,0,2.25c0,6.76-4.45,8.27-6.92,8.27s-7-1.51-7-8.27c0-2,0-7.64,0-7.64s31.53,0,31.53,0c0-11.47-11.08-21-24.7-21s-24.64,9.3-24.64,20.79S234.37,105,248,105c11.3,0,20.85-6.44,23.75-15.19l-16.68,0Zm-13.9-11.17c0-3.24,0-5.4,1.1-7.25a6.79,6.79,0,0,1,11.76,0c1.07,1.85,1.13,4,1.1,7.25Z"/><path id="path474" class="cls-1" d="M437,53.17c1.63,0,3.09-.1,3.09-2.06,0-1.57-1.42-1.85-2.76-1.85h-2.61v3.91Zm-2.28,7.13H432.8V47.63h4.81c3,0,4.48,1.1,4.48,3.61,0,2.27-1.42,3.25-3.28,3.49l3.6,5.57h-2.15l-3.35-5.5h-2.19v5.5Z"/><path id="path476" class="cls-1" d="M437,63.13a8.88,8.88,0,0,0,8.9-9.19,8.93,8.93,0,1,0-17.85,0A8.89,8.89,0,0,0,437,63.13m-11.15-9.19A11.13,11.13,0,1,1,437,65a11,11,0,0,1-11.15-11"/></svg>
