<svg id="Layer_1" data-name="Layer 1" xmlns="http://www.w3.org/2000/svg" viewBox="0 0 480 150"><defs><style>.cls-1{fill:#fff;}.cls-2{fill:#cd181f;}.cls-3{fill:#929496;}.cls-4{fill:#232020;}</style></defs><title>logo-nintendo-2ds</title><rect class="cls-1" x="-570.5" y="-698.5" width="3102" height="1623"/><path d="M2531-698V924H-570V-698H2531m1-1H-571V925H2532V-699Z"/><g id="layer1"><g id="g22"><path id="path24" class="cls-2" d="M263.58,103.32V95s.46-9.83,18.95-19.2c11.13-5.63,22.85-9.66,22.85-14.78,0-4.33-5.42-6.9-16.22-6.9-8.41,0-17.32,2.76-24,5.82V50.76a80.58,80.58,0,0,1,27.6-4.21c9.67,0,17.32,1.6,23.21,4.18,6.11,2.66,8.57,6.58,8.73,9.84.53,10.2-15.36,14.93-25.5,20.13-9.77,5-15,9.26-16,14.3h40.67v8.32Z"/></g><g id="g26"><path id="path28" class="cls-3" d="M252.69,97.69a1.07,1.07,0,0,1-1.07,1.1H230.48a1.1,1.1,0,0,1-1.11-1.1V82.4a1.09,1.09,0,0,1,1.11-1.1h21.14a1.07,1.07,0,0,1,1.07,1.1Zm-.88-21H230.29a5.67,5.67,0,0,0-5.66,5.66V97.74a5.67,5.67,0,0,0,5.66,5.64h21.52a5.65,5.65,0,0,0,5.64-5.64V82.38a5.65,5.65,0,0,0-5.64-5.66"/></g><g id="g30"><path id="path32" class="cls-4" d="M5,53.74V73.5H0V46.84H4.23l20,19.42V46.84h4.86V73.5H25.24Z"/></g><g id="g34"><path id="path36" class="cls-4" d="M54.46,53.74V73.5h-5V46.84h4.21l20,19.42V46.84H78.6V73.5H74.75Z"/></g><g id="g38"><path id="path40" class="cls-4" d="M157,53.74V73.5H152.1V46.84h4.23l20,19.42V46.84h4.87V73.5h-3.85Z"/></g><g id="g42"><path id="path44" class="cls-4" d="M40.86,46.84h.9V73.5H36.82V46.84Z"/></g><g id="g46"><path id="path48" class="cls-4" d="M112.22,46.84h.91v4.58H101.22V73.5H96.08V51.42H84.2V46.84Z"/></g><g id="g50"><path id="path52" class="cls-4" d="M143.85,46.84h.93v4.58H123.62v6H140V62H123.62v6.9h21.16V73.5H118.72V46.84Z"/></g><g id="g54"><path id="path56" class="cls-4" d="M208.65,68.89H193.48V51.42h15.17c4.74,0,6.42,4.71,6.42,8.72s-1.68,8.75-6.42,8.75m8.1-18.16a9.92,9.92,0,0,0-8.25-3.9H188.73V73.5H208.5a9.92,9.92,0,0,0,8.25-3.9,15.33,15.33,0,0,0,2.75-9.46,15.28,15.28,0,0,0-2.75-9.41"/></g><g id="g58"><path id="path60" class="cls-4" d="M252.69,67.82a1.06,1.06,0,0,1-1.07,1.08H230.48a1.09,1.09,0,0,1-1.11-1.08V52.52a1.09,1.09,0,0,1,1.11-1.09h21.14a1.06,1.06,0,0,1,1.07,1.09Zm-.88-21H230.29a5.67,5.67,0,0,0-5.66,5.65V67.85a5.67,5.67,0,0,0,5.66,5.65h21.52a5.65,5.65,0,0,0,5.64-5.65V52.49a5.65,5.65,0,0,0-5.64-5.65"/></g><g id="g62"><path id="path64" class="cls-4" d="M409.19,92.19c5.13,2,15.93,3.65,24.37,3.65,9.23,0,13.05-3.15,13.05-7.14,0-3.56-3.55-5.65-13.73-9.4-13.63-5-23.65-9-23.65-18,0-9.28,12-14.72,30.39-14.72a85.41,85.41,0,0,1,19.48,1.76l0,8.8C453,56,447.57,54,439.11,54c-9.07,0-12.93,2.88-12.93,5.86,0,4.3,5.95,6.36,16.37,10.07,14.55,5.19,22.63,9.21,22.63,18,0,9-10.13,15.54-32.94,15.54a136.11,136.11,0,0,1-23.05-1.76Z"/></g><g id="g66"><path id="path68" class="cls-4" d="M360.62,54.38H349.74V95.52h10.88c16.67,0,27.17-7.13,27.17-20.5s-10.5-20.64-27.17-20.64m29.15,44.95c-5.38,2.45-15.55,4-24.44,4H331.39V46.74h33.94c8.89,0,19.06,1.55,24.44,4,13.08,5.9,17.35,15.36,17.35,24.29s-4.23,18.42-17.35,24.31"/></g><g id="g70"><path id="path72" class="cls-4" d="M469.78,95.62H468v-1h4.77v1h-1.84v5.31h-1.13Z"/></g><g id="g74"><path id="path76" class="cls-4" d="M478.77,98.36c0-.81-.07-1.78-.07-2.62h0c-.22.76-.48,1.61-.75,2.39l-.94,2.73h-.87l-.85-2.68c-.22-.8-.45-1.66-.61-2.44h0c0,.82-.07,1.81-.1,2.66l-.15,2.53h-1.06l.41-6.28h1.5l.83,2.54c.21.71.41,1.47.57,2.18h0c.17-.68.4-1.47.64-2.2l.87-2.52h1.47l.36,6.28h-1.11Z"/></g></g></svg>