<svg id="Layer_1" data-name="Layer 1" xmlns="http://www.w3.org/2000/svg" viewBox="0 0 480 150"><defs><style>.cls-1{fill:#fff;}.cls-2{fill-rule:evenodd;}</style></defs><title>logo-playstation-vita</title><rect class="cls-1" x="-570.5" y="-193.5" width="3102" height="1623"/><path d="M2531-193V1429H-570V-193H2531m1-1H-571V1430H2532V-194Z"/><path class="cls-2" d="M479,83V78.82h0L477.4,83h-.72l-1.6-4.18h0V83h-1V77.66h1.51l1.46,3.78,1.46-3.78H480V83Zm-7.67,0h-1V78.5h-1.63v-.84H473v.84h-1.63V83ZM438,67.57l-49.17,0L380.31,83.8H369.13s34.84-66,36.23-68.21,5.36-9.37,11.77-9,9.1,5.22,10.31,7.3S464.63,83.8,464.63,83.8h-17.9Zm-21-39.08c-1.56-3.12-5.09-3.89-7-.25L394.12,58h38.76ZM354,15.85,354,83.12h-16V15.93l-30.35,0V6.54l76.81-.06,0,9.45ZM312.73,130.32c2.15-.4,4.06-.16,4.06-1.92,0-1.55-1.6-1.84-2.8-1.84-1.68,0-2.86.69-3,2.16h-3c.21-3.5,3.18-4.52,6.17-4.52,2.65,0,5.43,1.08,5.43,3.94v7c0,.73.16,1,.71,1a4.45,4.45,0,0,0,.74,0v2.07a7.42,7.42,0,0,1-1.89.34c-1.21,0-2.08-.42-2.31-1.65a6.94,6.94,0,0,1-4.7,1.65c-2.44,0-4.64-1.31-4.64-4C307.51,131.16,310.21,130.6,312.73,130.32Zm.52,5.82c1.31,0,3.36-.68,3.36-2.57v-2.23c-.92.6-2.36.58-3.67.81s-2.44.69-2.44,2.26C310.5,135.75,312.2,136.14,313.25,136.14Zm-13-1.34v-8H298v-2.23h2.25V120.5h3v4.07H306v2.23h-2.71V134c0,1.24.11,1.86,1.45,1.86a5.36,5.36,0,0,0,1.26-.1v2.31c-.66,0-1.29.16-1.94.16C300.89,138.27,300.31,137.06,300.26,134.8ZM281.05,7H297.3V83.55H281.05Zm2.16,127.27L288,119.4h3.33l-6.4,18.74h-3.65L275,119.4h3.42l4.69,14.83Zm-12.36,4.1a4.32,4.32,0,1,1,4.22-4.31A4.16,4.16,0,0,1,270.85,138.33Zm0-7.88a3.35,3.35,0,0,0-3.32,3.57,3.32,3.32,0,1,0,6.62,0A3.35,3.35,0,0,0,270.85,130.45Zm.67,3.94,1.34,2.1H272l-1.24-2.05H270v2.05h-.79v-4.78H271c1.16,0,1.74.4,1.74,1.37A1.22,1.22,0,0,1,271.52,134.39Zm-.58-2H270v1.4h.87c.59,0,1.11-.06,1.11-.76S271.41,132.38,270.94,132.38Zm-48-48.59c-6.4-.35-9.07-5.22-10.28-7.29S175.52,6.7,175.52,6.7h17.86l29.74,55.2c1.55,3.12,5.07,3.89,7,.25,1.55-2.94,29.58-55.45,29.58-55.45h11.16s-34.78,65.83-36.16,68.08S229.33,84.14,222.92,83.79Zm-43.87,40.78-5.27,14.3c-1,2.44-1.68,4.65-4.81,4.65a14.21,14.21,0,0,1-2.07-.16v-2.52a8.62,8.62,0,0,0,1.42.18c1.39,0,1.73-.73,2.1-1.89l.34-1-5.15-13.51h3.28l3.55,10.13h.05l3.44-10.13ZM129.31,27.62V62.68c0,12.82-5.77,20.82-21.77,20.82H73.17V74h30c6.13,0,9.8-5,9.8-11.34V27.62c0-11.18,5.43-20.82,21.32-20.82h34.13v9.48H138.88C130.9,15.94,129.31,22.47,129.31,27.62ZM61.84,49.31H25.07c-5,0-8.77,3.84-8.77,10.41V83.61H.42v-23C.42,47.67,8.53,39,20,39h37.2c9.12-.35,11.3-4.88,11.3-11.45,0-5-2.52-11.92-11.3-11.23H.42V6.8H61.84C78,6.8,84.31,16.11,84.31,27.51,84.31,40.44,78,49.31,61.84,49.31Zm81.52,75.89c0,2.31-1,5.77-6.37,5.75h-5v7.19h-3.28V119.4H137C142.34,119.4,143.36,122.86,143.36,125.2ZM132,122.08v6.19h4.8a3,3,0,0,0,3.28-3.1c0-2.46-1.49-3.09-3.22-3.09Zm17,16.06h-3V119.4h3Zm7.87-7.82c2.15-.4,4.07-.16,4.07-1.92,0-1.55-1.61-1.84-2.81-1.84-1.68,0-2.86.69-3,2.16h-3c.21-3.5,3.18-4.52,6.17-4.52,2.65,0,5.43,1.08,5.43,3.94v7c0,.73.16,1,.71,1a4.45,4.45,0,0,0,.74,0v2.07a7.42,7.42,0,0,1-1.89.34c-1.21,0-2.08-.42-2.31-1.65a6.94,6.94,0,0,1-4.7,1.65c-2.44,0-4.64-1.31-4.64-4C151.66,131.16,154.36,130.6,156.88,130.32Zm.52,5.82c1.31,0,3.36-.68,3.36-2.57v-2.23c-.92.6-2.36.58-3.67.81s-2.44.69-2.44,2.26C154.65,135.75,156.35,136.14,157.4,136.14Zm30.78-.24c2.89,0,4-1.41,4-2.83a2.23,2.23,0,0,0-1.55-2.31c-1.31-.5-3-.84-5.59-1.55-3.2-.86-4.15-2.8-4.15-4.75,0-3.75,3.47-5.51,6.85-5.51,3.91,0,7.19,2.08,7.19,6h-3.28c-.16-2.42-1.78-3.31-4-3.31-1.52,0-3.44.55-3.44,2.44,0,1.31.89,2.05,2.23,2.41.29.08,4.44,1.16,5.41,1.45a5,5,0,0,1,3.65,4.77c0,4.2-3.73,5.88-7.46,5.88-4.27,0-7.74-2.05-7.82-6.69h3.28C183.43,134.78,185.56,135.9,188.18,135.9Zm10.71-15.4h3v4.07h2.7v2.23h-2.7V134c0,1.24.11,1.86,1.44,1.86a5.36,5.36,0,0,0,1.26-.1v2.31c-.65,0-1.28.16-1.94.16-3.12,0-3.7-1.21-3.75-3.47v-8h-2.26v-2.23h2.26V120.5Zm12.46,9.82c2.16-.4,4.07-.16,4.07-1.92,0-1.55-1.6-1.84-2.81-1.84-1.68,0-2.86.69-3,2.16h-3c.21-3.5,3.18-4.52,6.17-4.52,2.65,0,5.43,1.08,5.43,3.94v7c0,.73.16,1,.71,1a4.28,4.28,0,0,0,.73,0v2.07a7.34,7.34,0,0,1-1.89.34c-1.2,0-2.07-.42-2.31-1.65a6.91,6.91,0,0,1-4.69,1.65c-2.44,0-4.65-1.31-4.65-4C206.13,131.16,208.83,130.6,211.35,130.32Zm.53,5.82c1.31,0,3.36-.68,3.36-2.57v-2.23c-.92.6-2.36.58-3.68.81s-2.44.69-2.44,2.26C209.12,135.75,210.83,136.14,211.88,136.14Zm10.6-15.64h3v4.07h2.7v2.23h-2.7V134c0,1.24.11,1.86,1.44,1.86a5.36,5.36,0,0,0,1.26-.1v2.31c-.65,0-1.28.16-1.94.16-3.12,0-3.7-1.21-3.75-3.47v-8h-2.26v-2.23h2.26Zm11.05,1.73h-3V119.4h3Zm0,15.91h-3V124.57h3Zm9.6-13.94c4.36,0,6.85,3,6.85,7.14s-2.49,7.16-6.85,7.16-6.85-3-6.85-7.16S238.78,124.2,243.13,124.2Zm0,11.94c2.68,0,3.86-2.44,3.86-4.8s-1.18-4.78-3.86-4.78-3.86,2.44-3.86,4.78S240.45,136.14,243.13,136.14Zm12.31-9.58.05.06a4.85,4.85,0,0,1,4.23-2.42c2.93,0,4.8,1.58,4.8,4.62v9.32h-3v-8.53c-.06-2.13-.9-3.05-2.65-3.05a3.31,3.31,0,0,0-3.28,3.57v8h-3V124.57h2.84v2ZM296,122.23h-3V119.4h3Zm0,15.91h-3V124.57h3Z"/></svg>