<svg id="Layer_1" data-name="Layer 1" xmlns="http://www.w3.org/2000/svg" viewBox="0 0 480 150"><defs><style>.cls-1{fill:#fff;}.cls-2{fill:#92c83e;}.cls-3{fill:#9d9fa2;}</style></defs><title>logo-xbox-360</title><rect class="cls-1" x="-70.5" y="-1201.5" width="3102" height="1623"/><path d="M3031-1201V421H-70V-1201H3031m1-1H-71V422H3032V-1202Z"/><path id="path3007" class="cls-2" d="M317,105.3,297.79,79.16,278.55,105.3h-7.92l23.14-31.58L272.64,45h7.93l17.22,23.4L315,45h7.92L301.8,73.72l23.14,31.58Zm-150,0L143.88,73.72,165,45h-7.91L139.86,68.45,122.66,45h-7.91l21.12,28.69-23.15,31.57h7.92l19.23-26.13,19.24,26.13ZM216.28,87.7c0,10.85-8.23,17.6-21.49,17.6H170.33V77.06H157.81c.9-1.36,3.31-4.68,4.36-6h8.16V45h24.46c18.17,0,19.59,12.54,19.59,16.4a13.62,13.62,0,0,1-7.24,12.06A16.36,16.36,0,0,1,211.08,76a14.84,14.84,0,0,1,5.2,11.69M177.09,71h17.7c8.15,0,12.82-3.77,12.82-10.11,0-8.38-8-9.58-12.82-9.58h-17.7Zm32.44,16.56c0-8.65-8-10.51-14.74-10.51h-17.7V99h17.7c5.51,0,14.74-1.5,14.74-11.43m67.28-12.44c0,18.55-11.79,31.49-28.69,31.49s-28.76-12.94-28.76-31.49,11.83-31.48,28.76-31.48,28.69,12.94,28.69,31.48m-6.84,0C270,60.34,261,50,248.12,50s-21.94,10.33-21.94,25.12,9,25.12,21.94,25.12S270,89.92,270,75.13"/><path id="path3009" class="cls-3" d="M457.19,43.61c-14.31,0-22.52,11.52-22.52,31.6s8.21,31.59,22.52,31.59c8.16,0,14.22-3.56,18.07-10.54,3.66-6.67,4.43-15.13,4.43-21.05,0-9.5-2.2-31.6-22.5-31.6m0,57.79a13.82,13.82,0,0,1-10.09-3.93c-5.74-5.76-6.6-16.41-6.6-22.26,0-7.88,1.63-26.18,16.69-26.18s16.67,18.3,16.67,26.18-1.62,26.19-16.67,26.19M408.84,64.48a19.71,19.71,0,0,0-16.18,8.44C393.43,61.48,397.11,49,409.53,49c6.94,0,12.2,4.53,13.38,11.54l.18,1.11h5.77l-.15-1.47c-1.14-10.23-8.49-16.6-19.18-16.6-18.9,0-22.86,18.75-22.86,34.47,0,18.79,7.67,28.72,22.17,28.72a20.5,20.5,0,0,0,20.92-21c0-12.38-8.81-21.34-20.92-21.34m0,36.92A15.26,15.26,0,0,1,393.6,85.82c0-9.09,6.57-15.92,15.24-15.92a14.52,14.52,0,0,1,10.34,4.28,16.44,16.44,0,0,1,4.72,11.64c0,8.73-6.61,15.58-15.06,15.58M382.13,88.17c0,11.25-8.37,18.52-21.32,18.52-7,0-12.74-2.09-16.51-6-3.61-3.79-5.37-9.21-5.08-15.69l0-1.23h5.84l0,1.35c-.21,4.88,1.12,9,3.85,11.81s6.89,4.41,11.89,4.41c7.71,0,15.47-4.52,15.47-13.13A11,11,0,0,0,373,79.74c-2.63-2.47-6.87-3.59-12.23-3.64h-4.06c0-1.42,0-4.24,0-5.7l4,0c2.85,0,8.39-.72,11.39-3.6a9.64,9.64,0,0,0,2.8-7.19c0-7-7.12-10.66-14.14-10.66s-12.21,4.53-13.39,11.56l-.18,1.09h-5.8l.17-1.46c1.15-10.23,8.52-16.6,19.2-16.6,6.52,0,12.29,2,15.81,5.53a14.37,14.37,0,0,1,4.16,10.54A14.47,14.47,0,0,1,372.44,73c6,2.4,9.69,8,9.69,15.17"/><g id="g4160"><g id="g3489"><g id="g3484"><path id="path3033" class="cls-2" d="M101.08,75c0,27.51-22.56,49.81-50.39,49.81S.31,102.49.31,75,22.87,25.16,50.69,25.16,101.08,47.46,101.08,75Z"/></g><g id="g4126"><g id="g3427"><g id="g3378"><g id="g3917"><path id="path3900" class="cls-1" d="M38,53.16c-5.56,6.74-28.86,34.15-26.8,52.68A49.82,49.82,0,0,0,15.86,111c-.25-14.18,16.4-29.37,29.39-40.83Z"/></g></g><g id="g3888"><g id="g3876"><path id="path3089" class="cls-1" d="M24.28,32.61a50.72,50.72,0,0,0-8.09,6.07c8,1.52,16,8.56,20.41,14.39,3.83,6,5.91,11.46,8.61,17.13,1.83-1.55,3.69-3.13,5.7-4.75V40.86c-5.95-3.7-15.79-8.57-26.53-8.25C24.35,32.62,24.3,32.59,24.28,32.61Z"/></g></g><g id="g3386"><g id="g3388"><path id="path3390" class="cls-1" d="M63.48,53.16C69,59.9,92.35,87.31,90.28,105.84a48.63,48.63,0,0,1-4.7,5.14c.25-14.18-16.4-29.37-29.4-40.83Z"/></g></g><g id="g4021"><g id="g4023"><g id="g4033"><g id="g4035"><path id="path4037" class="cls-1" d="M77.18,32.61a51.38,51.38,0,0,1,8.06,6.07c-8,1.52-16,8.57-20.34,14.4-3.82,6-5.89,11.48-8.59,17.15-1.82-1.55-3.67-3.13-5.68-4.75V40.87c5.93-3.7,15.74-8.58,26.44-8.26C77.1,32.62,77.15,32.59,77.18,32.61Z"/></g></g></g></g></g></g></g></g></svg>