<svg id="Layer_1" data-name="Layer 1" xmlns="http://www.w3.org/2000/svg" viewBox="0 0 480 150"><defs><style>.cls-1{fill:#fff;}.cls-2{fill:#929497;}.cls-3{fill:#231f20;}.cls-4{fill:#cd181f;}</style></defs><title>logo-nintendo-3ds-xl</title><rect class="cls-1" x="-1570.5" y="-698.5" width="3102" height="1623"/><path d="M1531-698V924H-1570V-698H1531m1-1H-1571V925H1532V-699Z"/><path class="cls-2" d="M217.34,94.57a1,1,0,0,1-1,1H198.2a1,1,0,0,1-.94-1V81.42a1,1,0,0,1,.94-1h18.19a1,1,0,0,1,1,1Zm-.79-18H198a4.87,4.87,0,0,0-4.86,4.86V94.6A4.88,4.88,0,0,0,198,99.46h18.51a4.89,4.89,0,0,0,4.87-4.86V81.39a4.88,4.88,0,0,0-4.87-4.86"/><polygon class="cls-3" points="4.25 56.77 4.25 73.76 0 73.76 0 50.83 3.63 50.83 20.83 67.53 20.83 50.83 24.23 50.83 25.02 50.83 25.02 73.76 21.7 73.76 4.25 56.77"/><polygon class="cls-3" points="46.82 56.77 46.82 73.76 42.58 73.76 42.58 50.83 46.2 50.83 63.4 67.53 63.4 50.83 66.8 50.83 67.59 50.83 67.59 73.76 64.28 73.76 46.82 56.77"/><polygon class="cls-3" points="135.06 56.77 135.06 73.76 130.81 73.76 130.81 50.83 134.44 50.83 151.63 67.53 151.63 50.83 155.03 50.83 155.83 50.83 155.83 73.76 152.51 73.76 135.06 56.77"/><polygon class="cls-3" points="35.13 50.83 35.91 50.83 35.91 73.76 31.67 73.76 31.67 50.83 35.13 50.83"/><polygon class="cls-3" points="96.51 50.83 97.29 50.83 97.29 54.77 87.05 54.77 87.05 73.76 82.64 73.76 82.64 54.77 72.41 54.77 72.41 50.83 96.51 50.83"/><polygon class="cls-3" points="123.72 50.83 124.51 50.83 124.51 54.77 106.31 54.77 106.31 59.92 120.39 59.92 120.39 63.86 106.31 63.86 106.31 69.81 124.51 69.81 124.51 73.76 102.11 73.76 102.11 50.83 123.72 50.83"/><path class="cls-3" d="M179.44,69.81h-13v-15h13c4.08,0,5.53,4,5.53,7.52s-1.45,7.52-5.53,7.52m7-15.63a8.54,8.54,0,0,0-7.09-3.35h-17V73.76h17a8.54,8.54,0,0,0,7.09-3.35,13.28,13.28,0,0,0,2.37-8.12,13.23,13.23,0,0,0-2.37-8.11"/><path class="cls-3" d="M217.34,68.87a1,1,0,0,1-1,.94H198.2a.94.94,0,0,1-.94-.94V55.72a.94.94,0,0,1,.94-.94h18.19a1,1,0,0,1,1,.94Zm-.79-18H198a4.87,4.87,0,0,0-4.86,4.86V68.9A4.87,4.87,0,0,0,198,73.76h18.51a4.88,4.88,0,0,0,4.87-4.86V55.69a4.88,4.88,0,0,0-4.87-4.86"/><path class="cls-3" d="M354.54,89.83c4.41,1.74,13.7,3.15,21,3.15,7.94,0,11.23-2.73,11.23-6.14,0-3.07-3.06-4.88-11.83-8.09C363.18,74.42,354.58,71,354.58,63.3c0-8,10.35-12.66,26.13-12.66a73.55,73.55,0,0,1,16.76,1.52l0,7.57c-5.28-1-10-2.74-17.24-2.74-7.79,0-11.11,2.48-11.11,5,0,3.7,5.11,5.47,14.09,8.67,12.49,4.48,19.45,7.92,19.45,15.47,0,7.75-8.71,13.35-28.34,13.35A115.94,115.94,0,0,1,354.54,98Z"/><path class="cls-3" d="M312.75,57.32h-9.34V92.69h9.34c14.35,0,23.39-6.13,23.39-17.61s-9-17.76-23.39-17.76M337.83,96c-4.62,2.09-13.36,3.42-21,3.42h-29.2V50.74h29.2c7.65,0,16.39,1.35,21,3.43,11.25,5.08,14.92,13.21,14.92,20.91S349.12,90.9,337.83,96"/><path class="cls-4" d="M267.14,72.77s13.63-2.18,13.63-10.65c0-8.3-14.51-11.69-29.94-11.69a139.6,139.6,0,0,0-23.09,1.7v7.53a81.22,81.22,0,0,1,20.61-2.83c8.84,0,15.6,2.64,15.6,6.37,0,4.5-6.68,7.06-21,7.06h-6.6V77h6.14c15.13,0,23.74,2.28,23.74,7.84,0,5-7.69,8-17.28,8a82.86,82.86,0,0,1-22.21-3.5v8.12a132.83,132.83,0,0,0,25.61,2.1c16.31,0,30.5-5.24,30.5-14.49,0-7.76-9.83-12.31-15.66-12.31"/><polygon class="cls-3" points="406.65 93.95 405.11 93.95 405.11 93.12 409.19 93.12 409.19 93.95 407.63 93.95 407.63 98.52 406.65 98.52 406.65 93.95"/><path class="cls-3" d="M414.38,96.32c0-.7-.07-1.54-.06-2.27h0c-.18.66-.4,1.39-.64,2.07l-.79,2.34h-.76l-.72-2.31c-.21-.69-.4-1.43-.54-2.1h0c0,.71-.05,1.57-.09,2.3l-.12,2.17h-.93l.37-5.4h1.29l.71,2.18c.19.62.36,1.27.49,1.87h0c.14-.59.32-1.25.53-1.89l.75-2.16h1.28l.31,5.4h-1Z"/><polygon class="cls-3" points="456.05 99.51 444.97 82.51 455.61 66.18 449.32 66.18 441.83 77.69 434.34 66.18 428.12 66.18 438.72 82.46 427.62 99.51 433.91 99.51 441.87 87.29 449.82 99.51 456.05 99.51"/><path class="cls-3" d="M459.44,66.18V91s0,8.55,8.54,8.55h12V94.45H468.38a3.7,3.7,0,0,1-3.51-4V66.18Z"/></svg>