<svg id="Layer_1" data-name="Layer 1" xmlns="http://www.w3.org/2000/svg" viewBox="0 0 480 150"><defs><style>.cls-1{fill:#fff;}.cls-2,.cls-4{fill:#484848;}.cls-2{fill-rule:evenodd;}.cls-3,.cls-4{isolation:isolate;}.cls-4{font-size:6.58px;font-family:ArialMT, Arial;}</style></defs><title>logo-nintendo-switch-lite</title><rect class="cls-1" x="-2570.5" y="-698.5" width="3102" height="1623"/><path d="M531-698V924H-2570V-698H531m1-1H-2571V925H532V-699Z"/><g id="Page-1"><g id="Hero-A"><path class="cls-2" d="M442.05,82c1.05-9.11,7.49-15.69,16.62-15.69,8.53,0,14.89,6.35,15.72,15.69ZM480,84.41c-.15-13.44-9.13-22.93-21.18-22.93-12.72,0-22.38,9.63-22.38,23.23s9.51,23.17,22.75,23.17c6.52,0,12.88-1.65,18.56-7.4l-2.91-3.74a21.24,21.24,0,0,1-15.27,6.43c-9.28,0-16.69-6-17.52-16.44H480c-.07-.75,0-1.49,0-2.32ZM412.72,102.8c-6,0-10-3.52-10-11.06V67.15h20.88V62.22H402.69V47.58h-5.47V62.22h-10.4v4.93h10.4V91.74c0,10.91,5.69,16.06,15.12,16.06a20,20,0,0,0,13.1-4.48l-2.62-4a16.07,16.07,0,0,1-10.1,3.52ZM368.86,42.12a3.89,3.89,0,0,0-3.9,4,3.93,3.93,0,0,0,7.86,0,3.94,3.94,0,0,0-4-4Zm-2.77,65h5.46V62.22h-5.46Zm-54.56-65h-5.84v65h45.8V101.6h-40Zm-36.4,50.14a5.14,5.14,0,0,0-4.42,2.09v-9h-3.22v21.74h3.22v-8a3.61,3.61,0,0,1,3.82-3.81c2.17,0,3.37,1.35,3.37,3.81v8h3.21V98a5.71,5.71,0,0,0-6-5.75Zm-19.24,3a4.89,4.89,0,0,1,3.52,1.49l2-2.16A7.09,7.09,0,0,0,256,92.26a7.62,7.62,0,1,0,0,15.24,7.24,7.24,0,0,0,5.46-2.31L259.48,103a5.06,5.06,0,0,1-3.59,1.49,4.64,4.64,0,0,1,0-9.26Zm-16.76,9.34c-1.28,0-2.32-.75-2.32-2.69V95.55h5.61V92.71h-5.61V88.3h-3.22v4.41h-2.92v2.84h2.92v6.35c0,3.88,1.94,5.6,5.24,5.6a8.42,8.42,0,0,0,4.49-1.42l-1.27-2.54a5.36,5.36,0,0,1-2.92,1Zm-18,2.54h3.22V92.63h-3.22Zm1.65-21.74a2.24,2.24,0,1,0,2.25,2.24,2.2,2.2,0,0,0-2.25-2.24Zm-14.44,18.38L204.7,92.71h-3.59l-3.6,11.06-3.44-11.06H190.7l4.87,14.49h3.74l3.59-10.9,3.59,10.9h3.82l4.87-14.49h-3.37ZM179,95l-1.5-.22c-2.77-.37-4.42-1-4.42-2.84s1.95-3.14,4.79-3.14a11.25,11.25,0,0,1,6,1.8l1.72-2.77a13.63,13.63,0,0,0-7.71-2.32c-4.64,0-8.38,2.4-8.38,6.66,0,4,3.15,5.45,6.36,5.82l1.65.23c3.14.45,4.79,1.19,4.79,2.84,0,1.94-2.17,3.13-5,3.13a10.61,10.61,0,0,1-6.67-2.31l-1.87,2.69a14.17,14.17,0,0,0,8.61,2.84c4.64,0,8.53-2.39,8.53-6.65,0-3.89-3.37-5.31-6.88-5.76Zm-35.63,9.57A4.64,4.64,0,1,1,148,100a4.45,4.45,0,0,1-4.57,4.63Zm0-12.33a7.62,7.62,0,1,0,7.86,7.62,7.58,7.58,0,0,0-7.86-7.62Zm-21,12.33a4.64,4.64,0,0,1,0-9.27,4.64,4.64,0,0,1,0,9.27Zm4.19-10.16A5.6,5.6,0,0,0,122,92.26a7.63,7.63,0,0,0,0,15.24,5.45,5.45,0,0,0,4.56-2.09v1.72h3.22V85.39h-3.22Zm-23.42-2.17a5.25,5.25,0,0,0-4.5,2.17v-1.8H95.5v14.5h3.22v-8a3.61,3.61,0,0,1,3.82-3.81c2.17,0,3.36,1.35,3.36,3.81v8h3.22V98a5.71,5.71,0,0,0-6-5.75ZM78.21,98.69A3.75,3.75,0,0,1,82.1,95.1c2,0,3.37,1.34,3.67,3.59Zm4-6.43c-4.27,0-7.26,3.06-7.26,7.62S78,107.5,82.4,107.5a8.8,8.8,0,0,0,6-2l-1.57-2.24a6.87,6.87,0,0,1-4.19,1.5,4.13,4.13,0,0,1-4.34-3.66H89.06c0-.38.08-.75.08-1.2-.08-4.48-2.84-7.62-7-7.62ZM65.71,104.59c-1.27,0-2.32-.75-2.32-2.69V95.55H69V92.71H63.39V88.3H60.17v4.41H57.26v2.84h2.91v6.35c0,3.88,1.95,5.6,5.24,5.6a8.37,8.37,0,0,0,4.49-1.42l-1.27-2.54a5.12,5.12,0,0,1-2.92,1ZM45.8,92.26a5.24,5.24,0,0,0-4.49,2.17v-1.8H38.17v14.5h3.22v-8a3.61,3.61,0,0,1,3.82-3.81c2.17,0,3.36,1.35,3.36,3.81v8h3.22V98a5.64,5.64,0,0,0-6-5.75ZM28.52,85.39a2.24,2.24,0,1,0,2.24,2.24,2.2,2.2,0,0,0-2.24-2.24Zm-1.58,21.74h3.22V92.63H26.94ZM15,101.3,3.14,86H0v21.15H3.44V91.81l11.9,15.32h3.15V86H15Z"/><g id="TM" class="cls-3"><text class="cls-4" transform="translate(281.14 90.89)">TM</text></g></g></g></svg>