<svg id="Layer_1" data-name="Layer 1" xmlns="http://www.w3.org/2000/svg" viewBox="0 0 480 150"><defs><style>.cls-1{fill:#fff;}.cls-2{fill-rule:evenodd;}</style></defs><title>logo-playstation-5</title><rect class="cls-1" x="-2070.5" y="-193.5" width="3102" height="1623"/><path d="M1031-193V1429H-2070V-193H1031m1-1H-2071V1430H1032V-194Z"/><g id="ps5_logo" data-name="ps5 logo"><path id="ps_logo" data-name="ps logo" class="cls-2" d="M10.07,111.42c-10.55-3-12.35-9.24-7.52-12.83,4.46-3.33,12-5.81,12-5.81L45.92,81.59V94.34l-22.54,8.1c-4,1.45-4.6,3.47-1.36,4.53s9.1.76,13.08-.68l10.81-3.94v11.41l-2.16.36A70.5,70.5,0,0,1,10.07,111.42Zm66.09,1.33,35.14-12.54c4-1.46,4.61-3.46,1.37-4.52s-9.1-.76-13.08.67l-23.43,8.27V91.46L77.52,91A80.83,80.83,0,0,1,93.8,87.54a69.43,69.43,0,0,1,30.32,3.62c10.31,3.26,11.47,8.07,8.85,11.39s-9,5.67-9,5.67L76.16,125.41ZM80.27,31.1c18.5,6.39,24.78,14.34,24.78,32.27,0,17.46-10.73,24.08-24.35,17.47V48.27c0-3.81-.69-7.33-4.26-8.33C73.71,39.06,72,41.61,72,45.43v81.49l-21.85-7V22.79C59.45,24.52,73,28.6,80.27,31.08Zm47,89.2a.81.81,0,0,1-.26.69,1.33,1.33,0,0,1-.8.2h-1.68v-1.74h1.78a1.43,1.43,0,0,1,.58.11A.73.73,0,0,1,127.25,120.3Zm1.21,4a.36.36,0,0,1-.18-.27,1.6,1.6,0,0,1-.05-.49l0-.79a1.37,1.37,0,0,0-.21-.81,1.19,1.19,0,0,0-.36-.31,1.52,1.52,0,0,0,.46-.45,1.8,1.8,0,0,0,.24-.94,1.55,1.55,0,0,0-.9-1.51,2.66,2.66,0,0,0-1.15-.2h-2.81v6.15h1.05v-2.53h1.65a1.61,1.61,0,0,1,.65.1.69.69,0,0,1,.34.65l0,1a4,4,0,0,0,0,.49,1.55,1.55,0,0,0,.08.23l0,.07h1.17v-.36Zm-7.22-2.57a4.66,4.66,0,0,1,1.33-3.25,4.47,4.47,0,0,1,6.32-.08l.08.08a4.61,4.61,0,0,1-3.2,7.84,4.48,4.48,0,0,1-3.2-1.34,4.64,4.64,0,0,1-1.33-3.25Zm4.53,5.52a5.32,5.32,0,0,0,3.85-1.62,5.59,5.59,0,0,0,0-7.81,5.35,5.35,0,0,0-3.85-1.61,5.54,5.54,0,0,0-3.84,9.42,5.3,5.3,0,0,0,3.84,1.62Z"/><path id="ps5" d="M470.1,106.29h-.93V99.92H467V99h5.2v.89h-2.13Zm6.45-1.68h0l2-5.58H480v7.27h-1v-6.07h0l-2.21,6.06h-.59L474,100.23h0v6.06h-.92V99h1.45Zm-18.84-61H368.59V67.74s-.27,9.33,11.27,9.33h54.47a15.45,15.45,0,0,1,6.22,1.27A10.08,10.08,0,0,1,447,88a10.66,10.66,0,0,1-4.82,9.43,12.1,12.1,0,0,1-6.66,1.94H368.59v6.78h74.64s16.95-.69,16.95-18.11c0-8.86-5.17-13.25-9.83-15.4a22.84,22.84,0,0,0-9.59-2.08h-54a5.55,5.55,0,0,1-2.59-.61,4.58,4.58,0,0,1-2.42-4.31V50.27h75.95ZM256.42,99.36v6.78h37.83a18.74,18.74,0,0,0,12.35-4.47,15.61,15.61,0,0,0,5.51-12.28V60.57A10.41,10.41,0,0,1,316,52.33a9.7,9.7,0,0,1,6.11-2.06h33V43.58H315.8s-16.95.28-16.95,18.21V88.7A11.72,11.72,0,0,1,297.13,95,9.1,9.1,0,0,1,289,99.38ZM169.08,43.58v6.69h67.43a12.88,12.88,0,0,1,5.43,1.17,9.42,9.42,0,0,1,5.68,9.07,9.3,9.3,0,0,1-5.68,8.89,12.84,12.84,0,0,1-5.52,1.18h-50a19.14,19.14,0,0,0-8.54,1.94c-4.16,2.09-8.79,7-8.79,15.11V106h13V87.71a9.61,9.61,0,0,1,.63-3.48c1.07-2.75,3.78-7.16,10.11-7.16h50.42a18.08,18.08,0,0,0,5-.67c4.63-1.32,12.35-5.12,12.35-15.89,0-16.72-16.65-16.93-16.65-16.93Z"/></g></svg>