<svg id="Layer_1" data-name="Layer 1" xmlns="http://www.w3.org/2000/svg" viewBox="0 0 480 150"><defs><style>.cls-1{fill:#fff;}.cls-2{fill:#107c10;}.cls-3{fill:#3a3a3a;}</style></defs><title>logo-xbox-one</title><rect class="cls-1" x="-570.5" y="-1201.5" width="3102" height="1623"/><path d="M2531-1201V421H-570V-1201H2531m1-1H-571V422H2532V-1202Z"/><g id="g6"><path id="path10" class="cls-2" d="M36.15,35.2a44.31,44.31,0,0,0-9.35,2.22c-2.72,1-6.06,2.66-6.06,3s.6.38,1.56.48c3.46.4,9.89,3.11,15.7,6.57A15.25,15.25,0,0,0,41,49a13.57,13.57,0,0,0,3-1.54,74.71,74.71,0,0,1,11.3-5.53,33.78,33.78,0,0,1,4-1c1.29-.17,1.95-.4,1.95-.6,0-.72-5.76-3.18-9.76-4.18A40.64,40.64,0,0,0,36.15,35.2Z"/><path id="path12" class="cls-2" d="M12.24,46.8A39.09,39.09,0,0,0,.84,70.33a37.42,37.42,0,0,0,.52,12.89A39.34,39.34,0,0,0,6.85,96.67c1.63,2.44,1.9,2.41,2.1-.2.77-9.81,8.33-23.28,20.92-37.12a16.75,16.75,0,0,0,2-2.51c0-.35-3.76-4-6.53-6.43-3.71-3.18-8.53-6.15-9.94-6.15C14.86,44.26,14.17,44.84,12.24,46.8Z"/><path id="path14" class="cls-2" d="M64.83,45a49.5,49.5,0,0,0-11.45,8.67,21,21,0,0,0-3,3.23,22.62,22.62,0,0,0,2.7,3.39c10.68,12,17.46,23.4,19.56,33A21.5,21.5,0,0,1,73.16,97c0,1.39,0,1.57.47,1.57.57,0,2.82-3.49,4.23-6.6a37.07,37.07,0,0,0,3.63-18.47,37.29,37.29,0,0,0-7-21.46c-2.1-3-6.73-7.75-7.52-7.75A7.89,7.89,0,0,0,64.83,45Z"/><path id="path16" class="cls-2" d="M38.3,67a163.81,163.81,0,0,0-18,18.79c-4.67,5.93-9.69,13.95-9.69,15.44,0,.47,2.59,3.14,4.94,5.1,8.26,6.87,20.25,10.06,31.53,8.39A41.91,41.91,0,0,0,70.27,103c1-1,1.16-1.24,1.16-2.14,0-4.58-9-15.93-23.71-30.15-4-3.86-6.23-5.82-6.58-5.82A10.67,10.67,0,0,0,38.3,67Z"/></g><polygon id="polygon8" class="cls-3" points="386.48 58.58 422.56 107.5 429.35 107.51 429.35 46.64 422.57 46.64 422.57 96.64 385.74 46.61 379.71 46.59 379.71 107.47 386.48 107.47 386.48 58.58"/><path id="path10-1" class="cls-3" d="M344.5,45.23c-17.12,0-29.08,13.09-29.08,31.83s12,31.86,29.08,31.86,29-13.09,29-31.86-11.92-31.83-29-31.83m0,57.24c-13,0-22.18-10.45-22.18-25.41s9.14-25.4,22.18-25.4,22.1,10.45,22.1,25.4-9.08,25.41-22.1,25.41"/><polygon id="polygon12" class="cls-3" points="479.58 52.56 479.58 46.6 436.96 46.6 436.96 107.52 480 107.52 480 101.56 443.79 101.56 443.79 79.03 477.3 79.03 477.3 73.08 443.79 73.08 443.79 52.56 479.58 52.56"/><polygon id="polygon14" class="cls-2" points="259.46 46.64 276.88 70.3 294.29 46.64 302.29 46.64 280.93 75.65 304.35 107.57 296.34 107.57 276.88 81.15 257.44 107.57 249.42 107.57 272.82 75.65 251.45 46.64 259.46 46.64"/><path id="path16-7" class="cls-2" d="M189.22,78a17.86,17.86,0,0,0-4-2.54,13.78,13.78,0,0,0,7.33-12.19c0-3.9-1.44-16.58-19.81-16.58H148V72.91h-8.24c-1.07,1.39-3.5,4.74-4.42,6.11H148v28.54h24.74c13.4,0,21.73-6.81,21.73-17.79A15,15,0,0,0,189.22,78M154.84,53h17.9c4.85,0,13,1.21,13,9.68,0,6.41-4.73,10.23-13,10.23h-17.9Zm17.9,48.21h-17.9V79h17.9c6.79,0,14.91,1.88,14.91,10.62,0,10-9.34,11.56-14.91,11.56"/><path id="path18" class="cls-2" d="M226.65,45.23c-17.11,0-29.07,13.1-29.07,31.84s12,31.85,29.07,31.85,29-13.09,29-31.85-11.92-31.84-29-31.84m0,57.24c-13,0-22.17-10.45-22.17-25.4s9.13-25.4,22.17-25.4,22.1,10.45,22.1,25.4-9.08,25.4-22.1,25.4"/><polygon id="polygon20" class="cls-2" points="91.81 46.64 113.17 75.65 89.75 107.56 97.77 107.56 117.21 81.15 136.66 107.56 144.68 107.56 121.25 75.65 142.63 46.64 134.62 46.64 117.2 70.31 99.79 46.64 91.81 46.64"/></svg>